<svg width="168" height="31" viewBox="0 0 168 31" fill="none" xmlns="http://www.w3.org/2000/svg">
<rect width="50.3564" height="30.2139" fill="black"/>
<path fill-rule="evenodd" clip-rule="evenodd" d="M32.1321 5.55096C29.5844 4.94684 27.5472 3.90232 25.1337 2.24185C24.6683 1.92165 24.0851 1.91924 23.617 2.23557C21.1733 3.88729 18.9173 4.93675 16.5894 5.5346C15.9059 5.71016 15.4434 6.30648 15.4434 7.01222V20.1183H33.3056V7.03533C33.3056 6.31957 32.8284 5.71604 32.132 5.5509L32.1321 5.55096Z" fill="#39B33B"/>
<path fill-rule="evenodd" clip-rule="evenodd" d="M32.1311 5.55093C29.5834 4.9468 27.5462 3.90228 25.1328 2.24181C24.6862 1.93457 24.1313 1.92001 23.6736 2.19872C23.737 2.22938 23.7989 2.26533 23.8588 2.30661C26.2723 3.96702 28.3095 5.0116 30.8572 5.61573C31.5535 5.78087 32.0308 6.3844 32.0308 7.10016V20.1184H33.3047V7.03536C33.3047 6.3196 32.8275 5.71607 32.1311 5.55093Z" fill="#33A235"/>
<path fill-rule="evenodd" clip-rule="evenodd" d="M17.8114 7.68989V18.4479H30.9394V7.65502C28.59 6.97292 26.437 5.9061 24.3853 4.57959C22.2895 5.96983 20.2396 7.02777 17.8114 7.68989Z" fill="#72D561"/>
<path fill-rule="evenodd" clip-rule="evenodd" d="M26.1793 9.23298C26.5727 8.83728 27.2125 8.83555 27.6082 9.22904C28.0038 9.62252 28.0056 10.2623 27.6121 10.658L24.2374 14.0646C23.8465 14.4576 23.2127 14.462 22.8165 14.0764L21.1468 12.4488C20.7468 12.0598 20.7379 11.4199 21.127 11.0199C21.5161 10.6198 22.1559 10.611 22.5559 11.0001L23.5085 11.9289L26.1793 9.23304V9.23298Z" fill="#EFF4F7"/>
<path fill-rule="evenodd" clip-rule="evenodd" d="M24.1871 14.1106C23.794 14.4562 23.1962 14.4447 22.8165 14.0752L21.1468 12.4477C20.7468 12.0586 20.7379 11.4188 21.127 11.0188C21.4102 10.7276 21.826 10.6437 22.1856 10.7696C22.1657 10.7871 22.1463 10.8055 22.1275 10.8248C21.7385 11.2249 21.7473 11.8647 22.1473 12.2538L23.817 13.8813C23.9222 13.9839 24.0485 14.0621 24.1871 14.1106Z" fill="#DEE8EE"/>
<path fill-rule="evenodd" clip-rule="evenodd" d="M16.0159 25.66H8L11.1309 22.6293L8 19.5986H16.0159C16.0926 19.5986 16.1551 19.6612 16.1551 19.7379V25.5207C16.155 25.5576 16.1403 25.593 16.1142 25.6191C16.0882 25.6452 16.0528 25.6599 16.0159 25.66V25.66Z" fill="#D4D4D4"/>
<path fill-rule="evenodd" clip-rule="evenodd" d="M32.9849 25.66H41.0007L37.8698 22.6293L41.0007 19.5986H32.9849C32.948 19.5987 32.9126 19.6134 32.8865 19.6395C32.8604 19.6656 32.8457 19.701 32.8456 19.7379V25.5207C32.8456 25.5974 32.9082 25.66 32.9849 25.66V25.66Z" fill="#D4D4D4"/>
<path d="M35.1303 15.9155H13.8648C13.68 15.9155 13.5303 16.0653 13.5303 16.25V23.1575C13.5303 23.3422 13.68 23.492 13.8648 23.492H35.1303C35.3151 23.492 35.4648 23.3422 35.4648 23.1575V16.25C35.4648 16.0653 35.3151 15.9155 35.1303 15.9155Z" fill="white"/>
<path d="M19.1945 27.5151V27.5172C19.3306 27.5172 19.433 27.4919 19.5018 27.4413C19.5706 27.3893 19.605 27.3169 19.605 27.2242C19.605 27.1314 19.5728 27.059 19.5084 27.007C19.4455 26.9536 19.324 26.8953 19.144 26.832C18.7547 26.7154 18.4788 26.5938 18.3164 26.4673C18.1539 26.3394 18.0727 26.1609 18.0727 25.9318C18.0727 25.7013 18.1759 25.5151 18.3822 25.3732C18.5886 25.2298 18.8535 25.1581 19.1769 25.1581C19.5018 25.1581 19.7652 25.2368 19.9672 25.3942C20.1692 25.5517 20.2665 25.754 20.2592 26.0014L20.2548 26.0141H19.6072C19.6072 25.9002 19.5677 25.8096 19.4886 25.7421C19.4111 25.6746 19.305 25.6409 19.1703 25.6409C19.0372 25.6409 18.9318 25.669 18.8542 25.7252C18.7766 25.7814 18.7379 25.8503 18.7379 25.9318C18.7379 26.0134 18.7745 26.0787 18.8476 26.1279C18.9208 26.1771 19.0672 26.2396 19.2867 26.3155C19.6291 26.4125 19.8794 26.5299 20.0375 26.6676C20.1955 26.8053 20.2746 26.993 20.2746 27.2305C20.2746 27.468 20.1765 27.6557 19.9804 27.7934C19.7857 27.9311 19.5238 28 19.1945 28C18.972 28 18.7708 27.9663 18.5908 27.8988C18.4108 27.8299 18.2659 27.7252 18.1561 27.5847C18.0478 27.4427 17.9959 27.2755 18.0003 27.0829L18.0025 27.0724H18.6544C18.6544 27.2284 18.6976 27.3415 18.784 27.4118C18.8718 27.4807 19.0086 27.5151 19.1945 27.5151Z" fill="white"/>
<path d="M21.5327 26.6824C21.5327 26.4673 21.4405 26.3598 21.2561 26.3598C21.0761 26.3598 20.9751 26.4807 20.9532 26.7224L20.9597 26.733H21.5327V26.6824ZM20.2682 27.0007V26.9269C20.2682 26.6065 20.3553 26.3493 20.5295 26.1553C20.7036 25.9613 20.9458 25.8651 21.2561 25.8665C21.5459 25.8665 21.7727 25.9494 21.9366 26.1152C22.102 26.2811 22.1847 26.5081 22.1847 26.7962V27.1335H20.9641L20.9597 27.1441C20.9744 27.2537 21.0197 27.3415 21.0958 27.4076C21.1719 27.4736 21.2707 27.5067 21.3922 27.5067C21.5151 27.5067 21.6132 27.4982 21.6864 27.4814C21.7595 27.4645 21.8598 27.4308 21.9871 27.3802L22.1452 27.7681C22.0471 27.837 21.9235 27.8925 21.7742 27.9346C21.6264 27.9768 21.4698 27.9979 21.3044 27.9979C20.9927 27.9979 20.7417 27.9044 20.5514 27.7175C20.3626 27.5306 20.2682 27.2916 20.2682 27.0007Z" fill="white"/>
<path d="M22.7667 26.9564C22.7667 27.1377 22.793 27.2748 22.8457 27.3675C22.8984 27.4603 22.9877 27.5067 23.1136 27.5067C23.2906 27.5067 23.3792 27.4146 23.3792 27.2305H23.9895L23.9939 27.241C23.9982 27.4645 23.9178 27.6472 23.7524 27.7892C23.5885 27.9297 23.3755 28 23.1136 28C22.7945 28 22.5457 27.9051 22.3672 27.7154C22.1901 27.5257 22.1015 27.2727 22.1015 26.9564V26.9122C22.1015 26.5973 22.1901 26.345 22.3672 26.1553C22.5442 25.9642 22.7916 25.8686 23.1092 25.8686C23.3828 25.8686 23.5994 25.9417 23.759 26.0878C23.9199 26.2326 23.9982 26.4301 23.9939 26.6803L23.9895 26.6929H23.3792C23.3792 26.5917 23.3558 26.5116 23.3089 26.4526C23.2636 26.3921 23.197 26.3619 23.1092 26.3619C22.9862 26.3619 22.8984 26.409 22.8457 26.5032C22.793 26.5973 22.7667 26.7337 22.7667 26.9122V26.9564Z" fill="white"/>
<path d="M24.69 28C24.4632 28 24.2883 27.9311 24.1653 27.7934C24.0424 27.6543 23.9809 27.4427 23.9809 27.1588V25.9065H24.6483V27.163C24.6483 27.3921 24.7354 27.5067 24.9095 27.5067C25.0515 27.5067 25.1613 27.4687 25.2388 27.3928V25.9065H25.9062V27.9599H25.3223L25.2805 27.7175C25.1386 27.9058 24.9417 28 24.69 28Z" fill="white"/>
<path d="M26.6704 27.9557H26.0009V25.9023H26.6309L26.6528 26.2038C26.7494 25.9775 26.8958 25.8644 27.0919 25.8644C27.1621 25.8644 27.2236 25.8721 27.2763 25.8876L27.2083 26.4673L26.9668 26.4652C26.8175 26.4652 26.7187 26.513 26.6704 26.6086V27.9557Z" fill="white"/>
<path d="M28.4357 26.6824C28.4357 26.4673 28.3435 26.3598 28.1591 26.3598C27.9791 26.3598 27.8781 26.4807 27.8561 26.7224L27.8627 26.733H28.4357V26.6824ZM27.1712 27.0007V26.9269C27.1712 26.6065 27.2583 26.3493 27.4324 26.1553C27.6066 25.9613 27.8488 25.8651 28.1591 25.8665C28.4488 25.8665 28.6757 25.9494 28.8396 26.1152C29.005 26.2811 29.0877 26.5081 29.0877 26.7962V27.1335H27.8671L27.8627 27.1441C27.8773 27.2537 27.9227 27.3415 27.9988 27.4076C28.0749 27.4736 28.1737 27.5067 28.2952 27.5067C28.4181 27.5067 28.5162 27.4982 28.5893 27.4814C28.6625 27.4645 28.7628 27.4308 28.8901 27.3802L29.0481 27.7681C28.9501 27.837 28.8264 27.8925 28.6771 27.9346C28.5293 27.9768 28.3727 27.9979 28.2074 27.9979C27.8956 27.9979 27.6446 27.9044 27.4544 27.7175C27.2656 27.5306 27.1712 27.2916 27.1712 27.0007Z" fill="white"/>
<path d="M29.8475 25.8686C30.0392 25.8686 30.2002 25.9529 30.3304 26.1216V25H31V27.9599H30.4204L30.3722 27.707C30.2375 27.9023 30.0619 28 29.8453 28C29.5848 28 29.3814 27.9079 29.235 27.7238C29.0887 27.5397 29.0155 27.2909 29.0155 26.9775L29.0133 26.9375C29.0133 26.61 29.0865 26.35 29.2328 26.1574C29.3792 25.9649 29.5841 25.8686 29.8475 25.8686ZM29.6828 26.9375V26.9775C29.6828 27.1518 29.7085 27.2839 29.7597 27.3739C29.8124 27.4624 29.8972 27.5067 30.0143 27.5067C30.1563 27.5067 30.2617 27.4582 30.3304 27.3612V26.5306C30.2587 26.4181 30.1548 26.3619 30.0187 26.3619C29.7948 26.3619 29.6828 26.5538 29.6828 26.9375Z" fill="white"/>
<path d="M21.007 21.1237V21.1274C21.2357 21.1274 21.4078 21.0832 21.5234 20.9946C21.6389 20.9036 21.6967 20.777 21.6967 20.6147C21.6967 20.4524 21.6426 20.3258 21.5344 20.2348C21.4287 20.1414 21.2246 20.0393 20.9221 19.9287C20.268 19.7246 19.8045 19.5119 19.5316 19.2906C19.2586 19.0668 19.1222 18.7545 19.1222 18.3537C19.1222 17.9504 19.2955 17.6246 19.6422 17.3762C19.9889 17.1254 20.434 17 20.9775 17C21.5234 17 21.966 17.1377 22.3053 17.4131C22.6447 17.6885 22.8082 18.0426 22.7959 18.4754L22.7885 18.4975H21.7004C21.7004 18.2983 21.634 18.1397 21.5012 18.0217C21.3709 17.9037 21.1926 17.8447 20.9664 17.8447C20.7426 17.8447 20.5656 17.8938 20.4353 17.9922C20.3049 18.0906 20.2398 18.2111 20.2398 18.3537C20.2398 18.4963 20.3012 18.6106 20.4242 18.6967C20.5471 18.7828 20.793 18.8922 21.1619 19.025C21.7373 19.1947 22.1578 19.4 22.4233 19.641C22.6889 19.8819 22.8217 20.2102 22.8217 20.6258C22.8217 21.0414 22.657 21.3696 22.3274 21.6106C22.0004 21.8516 21.5602 21.9721 21.007 21.9721C20.6332 21.9721 20.2951 21.9131 19.9926 21.795C19.6902 21.6745 19.4467 21.4913 19.2623 21.2454C19.0803 20.9971 18.9931 20.7045 19.0004 20.3676L19.0041 20.3491H20.0996C20.0996 20.6221 20.1721 20.82 20.3172 20.943C20.4648 21.0635 20.6947 21.1237 21.007 21.1237Z" fill="black"/>
<path d="M24.8471 21.1237V21.1274C25.0758 21.1274 25.2479 21.0832 25.3635 20.9946C25.4791 20.9036 25.5369 20.777 25.5369 20.6147C25.5369 20.4524 25.4828 20.3258 25.3746 20.2348C25.2688 20.1414 25.0647 20.0393 24.7623 19.9287C24.1082 19.7246 23.6447 19.5119 23.3717 19.2906C23.0988 19.0668 22.9623 18.7545 22.9623 18.3537C22.9623 17.9504 23.1357 17.6246 23.4824 17.3762C23.8291 17.1254 24.2742 17 24.8176 17C25.3635 17 25.8061 17.1377 26.1455 17.4131C26.4848 17.6885 26.6483 18.0426 26.636 18.4754L26.6287 18.4975H25.5406C25.5406 18.2983 25.4742 18.1397 25.3414 18.0217C25.2111 17.9037 25.0328 17.8447 24.8066 17.8447C24.5828 17.8447 24.4057 17.8938 24.2754 17.9922C24.1451 18.0906 24.0799 18.2111 24.0799 18.3537C24.0799 18.4963 24.1414 18.6106 24.2643 18.6967C24.3873 18.7828 24.6332 18.8922 25.002 19.025C25.5774 19.1947 25.9979 19.4 26.2635 19.641C26.5291 19.8819 26.6619 20.2102 26.6619 20.6258C26.6619 21.0414 26.4971 21.3696 26.1676 21.6106C25.8406 21.8516 25.4004 21.9721 24.8471 21.9721C24.4734 21.9721 24.1352 21.9131 23.8328 21.795C23.5303 21.6745 23.2869 21.4913 23.1025 21.2454C22.9205 20.9971 22.8332 20.7045 22.8406 20.3676L22.8443 20.3491H23.9398C23.9398 20.6221 24.0123 20.82 24.1574 20.943C24.3049 21.0635 24.5348 21.1237 24.8471 21.1237Z" fill="black"/>
<path d="M27.9385 17.0627V21.0315H30.0188V21.8946H26.8135V17.0627H27.9385Z" fill="black"/>
<rect width="50.3564" height="30.2139" transform="translate(58.6343)" fill="black"/>
<path d="M73.9995 13.4036H77.8586C77.878 12.0003 78.0826 10.6056 78.4673 9.25586H75.1907C74.4649 10.5221 74.0562 11.9452 73.9995 13.4036ZM82.728 14.1318H78.5849C78.6058 15.5376 78.8228 16.9337 79.2297 18.2796H82.728V14.1318ZM82.728 22.4743V19.0077H79.4841C80.2392 20.9532 81.4042 22.2682 82.728 22.4743ZM82.728 13.4036V9.25586H79.2297C78.8228 10.6017 78.6058 11.9978 78.5849 13.4036H82.728Z" fill="white"/>
<path d="M83.4565 5.06055V8.52717H86.7004C85.9449 6.58161 84.7803 5.26624 83.4565 5.06055Z" fill="white"/>
<path d="M79.4858 8.52717H82.7297V5.06055C81.4059 5.26624 80.2409 6.58124 79.4858 8.52717Z" fill="white"/>
<path d="M87.5992 13.4032C87.5785 11.9973 87.3615 10.6012 86.9545 9.25537H83.4565V13.4032H87.5992Z" fill="white"/>
<path d="M77.8568 14.1313H73.9995C74.0556 15.5896 74.4636 17.0126 75.1885 18.2791H78.4651C78.0806 16.9294 77.8761 15.5347 77.8568 14.1313Z" fill="white"/>
<path d="M86.7004 19.0074H83.4565V22.474C84.7803 22.268 85.9449 20.953 86.7004 19.0074ZM87.4798 8.52745H90.5321C89.187 6.6165 87.1585 5.29614 84.8666 4.83984C85.9529 5.52501 86.8645 6.82764 87.4798 8.52745Z" fill="white"/>
<path d="M78.7038 19.0078H75.6519C76.997 20.9186 79.0256 22.2389 81.3174 22.6951C80.2311 22.0099 79.3194 20.7073 78.7038 19.0078Z" fill="white"/>
<path d="M87.48 19.0078C86.8647 20.7073 85.9531 22.0099 84.8667 22.6951C87.1585 22.2389 89.1871 20.9186 90.5323 19.0078H87.48Z" fill="white"/>
<path d="M78.7038 8.52745C79.3194 6.82764 80.2311 5.52501 81.3174 4.83984C79.0255 5.29614 76.9969 6.6165 75.6519 8.52745H78.7038Z" fill="white"/>
<path d="M87.7186 9.25537C88.1035 10.6051 88.3082 11.9998 88.3274 13.4032H92.1864C92.1304 11.9449 91.7225 10.5218 90.9974 9.25537H87.7186ZM83.4565 14.1313V18.2791H86.9545C87.3615 16.9332 87.5785 15.5372 87.5992 14.1313H83.4565ZM92.185 14.1313H88.3259C88.3067 15.5347 88.102 16.9293 87.7172 18.2791H90.9938C91.7195 17.0128 92.1282 15.5897 92.185 14.1313Z" fill="white"/>
<path d="M92.8033 13.2248C90.5196 13.0705 88.4589 11.8581 87.733 11.3845C87.6508 11.3305 87.5545 11.3018 87.4561 11.3018C87.3578 11.3018 87.2615 11.3305 87.1793 11.3845C86.4511 11.8578 84.3924 13.0705 82.1089 13.2248C81.9786 13.2335 81.8567 13.2923 81.7686 13.3887C81.6806 13.4852 81.6332 13.612 81.6364 13.7425C81.6808 15.7667 82.1898 23.3174 87.2819 25.1964C87.3944 25.2375 87.5178 25.2375 87.6303 25.1964C92.7221 23.3174 93.2315 15.7671 93.2755 13.7425C93.2788 13.612 93.2315 13.4852 93.1435 13.3888C93.0555 13.2923 92.9336 13.2335 92.8033 13.2248Z" fill="#2DDE28"/>
<path d="M87.4559 23.6257C84.1065 22.0711 83.363 16.9378 83.1985 14.6206C84.7004 14.3296 86.1406 13.781 87.4555 12.999C88.7703 13.781 90.2106 14.3297 91.7125 14.6206C91.5483 16.9375 90.8042 22.0715 87.4559 23.6257Z" fill="#EEEEEE"/>
<path d="M91.7111 14.6185C91.5466 16.938 90.8046 22.0702 87.4548 23.6247V12.998C88.7692 13.7803 90.2093 14.3286 91.7111 14.6185Z" fill="#E0E0E0"/>
<path d="M85.546 17.5819H84.7269C84.6303 17.5819 84.5377 17.5436 84.4694 17.4753C84.4011 17.407 84.3628 17.3144 84.3628 17.2179C84.3628 17.1213 84.4011 17.0287 84.4694 16.9605C84.5377 16.8922 84.6303 16.8538 84.7269 16.8538H85.546C85.5943 16.8538 85.6406 16.8346 85.6747 16.8005C85.7089 16.7664 85.728 16.7201 85.728 16.6718C85.728 16.6235 85.7089 16.5772 85.6747 16.5431C85.6406 16.5089 85.5943 16.4898 85.546 16.4898H85.273C85.0316 16.4898 84.8001 16.3939 84.6294 16.2232C84.4587 16.0525 84.3628 15.821 84.3628 15.5796C84.3628 15.3382 84.4587 15.1067 84.6294 14.936C84.8001 14.7653 85.0316 14.6694 85.273 14.6694H86.0921C86.1887 14.6694 86.2813 14.7078 86.3495 14.7761C86.4178 14.8443 86.4562 14.9369 86.4562 15.0335C86.4562 15.1301 86.4178 15.2227 86.3495 15.2909C86.2813 15.3592 86.1887 15.3976 86.0921 15.3976H85.273C85.2247 15.3976 85.1784 15.4167 85.1442 15.4509C85.1101 15.485 85.0909 15.5313 85.0909 15.5796C85.0909 15.6279 85.1101 15.6742 85.1442 15.7083C85.1784 15.7424 85.2247 15.7616 85.273 15.7616H85.546C85.7874 15.7616 86.0189 15.8575 86.1896 16.0282C86.3603 16.1989 86.4562 16.4304 86.4562 16.6718C86.4562 16.9132 86.3603 17.1447 86.1896 17.3154C86.0189 17.4861 85.7874 17.5819 85.546 17.5819ZM87.7304 17.5819H86.9112C86.8147 17.5819 86.7221 17.5436 86.6538 17.4753C86.5855 17.407 86.5472 17.3144 86.5472 17.2179C86.5472 17.1213 86.5855 17.0287 86.6538 16.9605C86.7221 16.8922 86.8147 16.8538 86.9112 16.8538H87.7304C87.7787 16.8538 87.825 16.8346 87.8591 16.8005C87.8932 16.7664 87.9124 16.7201 87.9124 16.6718C87.9124 16.6235 87.8932 16.5772 87.8591 16.5431C87.825 16.5089 87.7787 16.4898 87.7304 16.4898H87.4573C87.216 16.4898 86.9844 16.3939 86.8138 16.2232C86.6431 16.0525 86.5472 15.821 86.5472 15.5796C86.5472 15.3382 86.6431 15.1067 86.8138 14.936C86.9844 14.7653 87.216 14.6694 87.4573 14.6694H88.2765C88.373 14.6694 88.4656 14.7078 88.5339 14.7761C88.6022 14.8443 88.6405 14.9369 88.6405 15.0335C88.6405 15.1301 88.6022 15.2227 88.5339 15.2909C88.4656 15.3592 88.373 15.3976 88.2765 15.3976H87.4573C87.4091 15.3976 87.3628 15.4167 87.3286 15.4509C87.2945 15.485 87.2753 15.5313 87.2753 15.5796C87.2753 15.6279 87.2945 15.6742 87.3286 15.7083C87.3628 15.7424 87.4091 15.7616 87.4573 15.7616H87.7304C87.9718 15.7616 88.2033 15.8575 88.374 16.0282C88.5447 16.1989 88.6405 16.4304 88.6405 16.6718C88.6405 16.9132 88.5447 17.1447 88.374 17.3154C88.2033 17.4861 87.9718 17.5819 87.7304 17.5819ZM90.1878 17.5819H89.5052C89.3001 17.5818 89.1034 17.5002 88.9584 17.3551C88.8133 17.2101 88.7318 17.0134 88.7316 16.8083V15.0335C88.7316 14.9369 88.7699 14.8443 88.8382 14.7761C88.9065 14.7078 88.9991 14.6694 89.0956 14.6694C89.1922 14.6694 89.2848 14.7078 89.3531 14.7761C89.4213 14.8443 89.4597 14.9369 89.4597 15.0335V16.8083C89.4597 16.8204 89.4645 16.832 89.473 16.8405C89.4816 16.849 89.4931 16.8538 89.5052 16.8538H90.1878C90.2844 16.8538 90.377 16.8922 90.4453 16.9605C90.5135 17.0287 90.5519 17.1213 90.5519 17.2179C90.5519 17.3144 90.5135 17.407 90.4453 17.4753C90.377 17.5436 90.2844 17.5819 90.1878 17.5819ZM86.7656 19.4023C86.7607 19.3057 86.7755 19.2091 86.8092 19.1183C86.8428 19.0276 86.8945 18.9447 86.9611 18.8746C87.0278 18.8045 87.108 18.7486 87.1969 18.7105C87.2858 18.6723 87.3815 18.6527 87.4783 18.6527C87.575 18.6527 87.6707 18.6723 87.7596 18.7105C87.8485 18.7486 87.9288 18.8045 87.9954 18.8746C88.0621 18.9447 88.1138 19.0276 88.1474 19.1183C88.181 19.2091 88.1958 19.3057 88.1909 19.4023H88.9191C88.9017 19.0244 88.7449 18.6665 88.4789 18.3975C88.213 18.1285 87.8568 17.9677 87.4792 17.946C87.1016 17.9677 86.7454 18.1285 86.4794 18.3975C86.2135 18.6665 86.0567 19.0244 86.0393 19.4023H86.7656Z" fill="black"/>
<path d="M86.0044 19.752H88.9165C88.9243 19.752 88.9312 19.7588 88.9312 19.7666V21.2227C88.9312 21.2304 88.9243 21.2363 88.9165 21.2363H86.0044C85.9966 21.2363 85.9897 21.2304 85.9897 21.2227V19.7666C85.9897 19.7588 85.9966 19.752 86.0044 19.752Z" fill="#E2E2E2" stroke="black" stroke-width="0.7"/>
<rect width="50.3564" height="30.2139" transform="translate(117.268)" fill="black"/>
<path d="M149.002 9.14209L142.127 6.60179C142.047 6.57284 141.957 6.57284 141.877 6.60179L135.002 9.14209C134.861 9.19637 134.766 9.33026 134.766 9.48225V15.1744C134.766 19.1043 137.017 21.8183 141.454 23.2368L141.895 23.3779C141.931 23.3888 141.968 23.396 142.004 23.396C142.04 23.396 142.08 23.3888 142.112 23.3779L142.554 23.2368C146.99 21.8183 149.241 19.1043 149.241 15.1744V9.48225C149.241 9.33026 149.147 9.19637 149.006 9.14209H149.002Z" fill="#F1F2F2"/>
<path d="M147.192 10.4011L142.126 8.50855C142.044 8.47957 141.954 8.47957 141.873 8.50855L136.806 10.4011C136.665 10.4554 136.571 10.5893 136.571 10.7413V15.1633C136.571 18.2645 138.312 20.338 141.887 21.4959C141.923 21.5068 141.959 21.514 141.999 21.514C142.039 21.514 142.075 21.5068 142.111 21.4959C145.69 20.338 147.427 18.2645 147.427 15.1633V10.7413C147.427 10.5893 147.333 10.4554 147.192 10.4011Z" fill="#2DDE28"/>
<path d="M149.001 8.3601C148.907 8.3601 148.817 8.32391 148.744 8.25516C148.711 8.22168 148.684 8.18192 148.666 8.13814C148.648 8.09436 148.638 8.04744 148.638 8.00004C148.638 7.95265 148.648 7.90572 148.666 7.86195C148.684 7.81817 148.711 7.7784 148.744 7.74493L150.384 6.10567C150.417 6.07217 150.457 6.04559 150.501 6.02746C150.544 6.00933 150.591 6 150.639 6C150.686 6 150.733 6.00933 150.777 6.02746C150.821 6.04559 150.86 6.07217 150.894 6.10567C150.927 6.13917 150.954 6.17895 150.972 6.22272C150.99 6.26649 150.999 6.31341 150.999 6.36079C150.999 6.40817 150.99 6.45508 150.972 6.49886C150.954 6.54263 150.927 6.5824 150.894 6.6159L149.255 8.25516C149.182 8.32753 149.092 8.3601 148.998 8.3601H149.001ZM133.358 24.0036C133.264 24.0036 133.173 23.9674 133.101 23.8986C133.067 23.8652 133.041 23.8254 133.023 23.7816C133.004 23.7378 132.995 23.6909 132.995 23.6435C132.995 23.5961 133.004 23.5492 133.023 23.5054C133.041 23.4616 133.067 23.4219 133.101 23.3884L135.619 20.8698C135.653 20.8363 135.693 20.8097 135.736 20.7916C135.78 20.7735 135.827 20.7641 135.875 20.7641C135.922 20.7641 135.969 20.7735 136.013 20.7916C136.056 20.8097 136.096 20.8363 136.13 20.8698C136.163 20.9033 136.19 20.9431 136.208 20.9869C136.226 21.0306 136.235 21.0776 136.235 21.1249C136.235 21.1723 136.226 21.2192 136.208 21.263C136.19 21.3068 136.163 21.3465 136.13 21.38L133.611 23.8986C133.539 23.971 133.448 24.0036 133.354 24.0036H133.358ZM150.64 24.0036C150.546 24.0036 150.456 23.9674 150.384 23.8986L147.865 21.38C147.831 21.3465 147.805 21.3068 147.787 21.263C147.769 21.2192 147.759 21.1723 147.759 21.1249C147.759 21.0776 147.769 21.0306 147.787 20.9869C147.805 20.9431 147.831 20.9033 147.865 20.8698C147.898 20.8363 147.938 20.8097 147.982 20.7916C148.026 20.7735 148.073 20.7641 148.12 20.7641C148.167 20.7641 148.214 20.7735 148.258 20.7916C148.302 20.8097 148.342 20.8363 148.375 20.8698L150.894 23.3884C150.944 23.4389 150.979 23.5033 150.992 23.5734C151.006 23.6435 150.999 23.7161 150.971 23.7821C150.944 23.848 150.897 23.9042 150.838 23.9437C150.778 23.9831 150.708 24.004 150.637 24.0036H150.64ZM134.997 8.3601C134.903 8.3601 134.812 8.32391 134.74 8.25516L133.101 6.6159C133.067 6.5824 133.041 6.54263 133.023 6.49886C133.004 6.45508 132.995 6.40817 132.995 6.36079C132.995 6.31341 133.004 6.26649 133.023 6.22272C133.041 6.17895 133.067 6.13917 133.101 6.10567C133.134 6.07217 133.174 6.04559 133.218 6.02746C133.262 6.00933 133.309 6 133.356 6C133.403 6 133.45 6.00933 133.494 6.02746C133.538 6.04559 133.578 6.07217 133.611 6.10567L135.25 7.74493C135.301 7.79546 135.335 7.85986 135.349 7.92996C135.363 8.00005 135.355 8.07266 135.328 8.13859C135.3 8.20451 135.254 8.26076 135.194 8.3002C135.135 8.33964 135.065 8.36049 134.993 8.3601H134.997Z" fill="white"/>
<path d="M144.17 13.5531H143.809V12.8294C143.809 11.8306 142.998 11.02 141.999 11.02C141.001 11.02 140.19 11.8306 140.19 12.8294V13.5531H139.828C139.43 13.5531 139.104 13.8788 139.104 14.2768V17.1717C139.104 17.5698 139.43 17.8955 139.828 17.8955H144.17C144.569 17.8955 144.894 17.5698 144.894 17.1717V14.2768C144.894 13.8788 144.569 13.5531 144.17 13.5531ZM140.914 12.8294C140.914 12.2323 141.402 11.7438 141.999 11.7438C142.596 11.7438 143.085 12.2323 143.085 12.8294V13.5531H140.914V12.8294Z" fill="black"/>
<path d="M141.999 16.448C141.8 16.448 141.638 16.2851 141.638 16.0861V15.3624C141.638 15.1633 141.8 15.0005 141.999 15.0005C142.198 15.0005 142.361 15.1633 142.361 15.3624V16.0861C142.361 16.2851 142.198 16.448 141.999 16.448Z" fill="white"/>
</svg>
