<svg width="27" height="27" viewBox="0 0 27 27" fill="none" xmlns="http://www.w3.org/2000/svg">
<g clip-path="url(#clip0_1052_5015)">
<path d="M26.528 8.29402L24.2954 6.06135L25.9738 4.38361C26.0473 4.31021 26.1056 4.22305 26.1454 4.12709C26.1852 4.03114 26.2057 3.92828 26.2057 3.8244C26.2057 3.72052 26.1852 3.61766 26.1454 3.5217C26.1056 3.42574 26.0473 3.33857 25.9738 3.26517L23.7267 1.01805C23.4301 0.721419 22.9048 0.721419 22.6081 1.01805L20.9304 2.69643L18.6974 0.463337C18.0796 -0.154446 17.0779 -0.154446 16.4601 0.463337C15.8422 1.08112 15.8422 2.08281 16.4601 2.70065L24.2907 10.5313C24.9086 11.1491 25.9103 11.1491 26.528 10.5313C27.1458 9.91355 27.1458 8.91186 26.528 8.29402ZM10.5391 24.2993L2.70851 16.4686C2.09062 15.8508 1.08904 15.8508 0.47115 16.4686C-0.146633 17.0865 -0.146633 18.0882 0.47115 18.7059L2.70419 20.939L1.02908 22.6134C0.880738 22.7617 0.797312 22.9626 0.797312 23.1727C0.797312 23.3827 0.880738 23.5836 1.02908 23.7319L3.2762 25.9783C3.43066 26.1328 3.63305 26.2101 3.83544 26.2101C4.03784 26.2101 4.24023 26.1328 4.39469 25.9783L6.06911 24.3039L8.30178 26.5366C8.91957 27.1544 9.92126 27.1544 10.5391 26.5366C11.157 25.9187 11.157 24.9171 10.5391 24.2993ZM14.2227 9.41268L9.42044 14.2313L12.7765 17.5873L17.5788 12.7686L14.2227 9.41268ZM24.2907 12.7686L14.2227 2.70065C13.605 2.08286 12.6032 2.08286 11.9854 2.70065C11.3675 3.31853 11.3675 4.32012 11.9854 4.93801L22.0534 15.006C22.6712 15.6238 23.6729 15.6238 24.2907 15.006C24.9086 14.3882 24.9086 13.3865 24.2907 12.7686ZM15.0138 22.062L4.94577 11.9939C4.32798 11.3761 3.32629 11.3761 2.70851 11.9939C2.09062 12.6118 2.09062 13.6135 2.70851 14.2313L12.7765 24.2993C13.3943 24.9171 14.396 24.9171 15.0138 24.2993C15.6317 23.6815 15.6317 22.6798 15.0138 22.062Z" fill="#2DDE28"/>
</g>
<defs>
<clipPath id="clip0_1052_5015">
<rect width="27" height="27" fill="white"/>
</clipPath>
</defs>
</svg>
