<svg width="27" height="27" viewBox="0 0 27 27" fill="none" xmlns="http://www.w3.org/2000/svg">
<path d="M25.1588 22.0909H20.8634C18.1567 22.0909 15.9544 19.8887 15.9544 17.182C15.9544 14.4752 18.1567 12.273 20.8634 12.273H25.1588C25.2394 12.273 25.3193 12.2572 25.3937 12.2264C25.4682 12.1955 25.5359 12.1503 25.5929 12.0933C25.6499 12.0364 25.6951 11.9687 25.7259 11.8942C25.7567 11.8197 25.7725 11.7399 25.7725 11.6593V9.81844C25.7725 8.53166 24.7744 7.48518 23.5133 7.3837L19.9892 1.22827C19.6626 0.658973 19.1353 0.252082 18.5042 0.0831234C17.8762 -0.0846842 17.2195 0.00344791 16.6574 0.330607L4.57643 7.36391H2.45465C1.10097 7.36391 0.00012207 8.4647 0.00012207 9.81844V24.5455C0.00012207 25.8991 1.10091 27 2.45465 27H23.318C24.6716 27 25.7725 25.8992 25.7725 24.5455V22.7046C25.7725 22.624 25.7567 22.5442 25.7259 22.4697C25.6951 22.3952 25.6499 22.3276 25.5929 22.2706C25.5359 22.2136 25.4682 22.1684 25.3937 22.1375C25.3193 22.1067 25.2394 22.0909 25.1588 22.0909ZM20.7502 5.02853L22.0873 7.36391H16.7389L20.7502 5.02853ZM7.0156 7.36391L17.2752 1.39124C17.5526 1.22884 17.8768 1.18569 18.1866 1.26842C18.5 1.35229 18.7613 1.55485 18.9237 1.83829L18.925 1.84053L9.43814 7.36391H7.0156Z" fill="#2DDE28"/>
<path d="M25.1588 13.5H20.8634C18.8331 13.5 17.1816 15.1515 17.1816 17.1818C17.1816 19.212 18.8331 20.8635 20.8634 20.8635H25.1588C26.1739 20.8635 26.9997 20.0378 26.9997 19.0226V15.3409C26.9997 14.3258 26.1739 13.5 25.1588 13.5ZM20.8634 18.409C20.1869 18.409 19.6362 17.8583 19.6362 17.1818C19.6362 16.5052 20.1869 15.9545 20.8634 15.9545C21.5399 15.9545 22.0906 16.5052 22.0906 17.1818C22.0907 17.8583 21.54 18.409 20.8634 18.409Z" fill="#2DDE28"/>
</svg>
