<svg width="51" height="31" viewBox="0 0 51 31" fill="none" xmlns="http://www.w3.org/2000/svg">
<rect width="50.3564" height="30.2139" transform="translate(0.634277 0.210938)" fill="#2A2A2A"/>
<path d="M42.888 21.8124L42.4943 19.9277H38.0948L37.3948 21.799L33.8685 21.8057C36.1353 16.5912 37.8177 12.7286 38.9155 10.2179C39.2025 9.56121 39.7118 9.22616 40.4625 9.23119C41.0365 9.23565 41.9733 9.23621 43.273 9.23286L45.9995 21.8073L42.888 21.8124ZM39.0835 17.3461H41.9203L40.8615 12.6219L39.0835 17.3461ZM16.358 9.22951L19.9035 9.23286L14.4225 21.814L10.8333 21.8107C9.9307 18.4875 9.03936 15.1616 8.15926 11.8329C7.98426 11.1695 7.63776 10.7054 6.97101 10.486C6.37485 10.2905 5.38435 9.9884 3.99951 9.57964V9.23286H9.66426C10.6443 9.23286 11.2165 9.68686 11.4003 10.6183C11.5858 11.552 12.0524 13.9275 12.8003 17.7448L16.358 9.22951ZM24.7755 9.23286L21.9738 21.8124L18.598 21.8073L21.3945 9.22951L24.7755 9.23286ZM31.618 9C32.6278 9 33.9 9.30155 34.6315 9.57964L34.04 12.1863C33.3785 11.9317 32.29 11.5883 31.3748 11.6C30.0448 11.6218 29.2223 12.1562 29.2223 12.6688C29.2223 13.5031 30.6503 13.9236 32.1203 14.8349C33.7968 15.8736 34.019 16.8067 33.998 17.8219C33.9753 19.9244 32.1203 22 28.2073 22C26.4223 21.9749 25.7783 21.8325 24.3223 21.3366L24.9383 18.616C26.4205 19.209 27.0488 19.3983 28.3158 19.3983C29.476 19.3983 30.4718 18.9494 30.4805 18.167C30.4875 17.6108 30.1305 17.3344 28.8285 16.6476C27.5265 15.9607 25.6995 15.0075 25.724 13.0927C25.7538 10.6434 28.1775 9 31.618 9Z" fill="white"/>
</svg>
