<svg width="51" height="31" viewBox="0 0 51 31" fill="none" xmlns="http://www.w3.org/2000/svg">
<rect width="50.3564" height="30.2139" transform="translate(0.634277 0.211182)" fill="#2A2A2A"/>
<path d="M15.1069 13.164H19.2135C19.2341 11.6706 19.452 10.1865 19.8613 8.75012H16.3746C15.6022 10.0976 15.1673 11.612 15.1069 13.164ZM24.3952 13.9388H19.9864C20.0087 15.4348 20.2396 16.9204 20.6726 18.3526H24.3952V13.9388ZM24.3952 22.8164V19.1275H20.9434C21.7469 21.1978 22.9866 22.5972 24.3952 22.8164ZM24.3952 13.164V8.75012H20.6726C20.2396 10.1823 20.0087 11.6679 19.9864 13.164H24.3952Z" fill="white"/>
<path d="M25.1694 4.28638V7.97535H28.6213C27.8174 5.905 26.5781 4.50527 25.1694 4.28638Z" fill="white"/>
<path d="M20.9429 7.97535H24.3948V4.28638C22.9861 4.50527 21.7464 5.90461 20.9429 7.97535Z" fill="white"/>
<path d="M29.5778 13.1641C29.5558 11.668 29.3249 10.1824 28.8917 8.75024H25.1694V13.1641H29.5778Z" fill="white"/>
<path d="M19.2116 13.9385H15.1069C15.1666 15.4903 15.6007 17.0046 16.3722 18.3523H19.859C19.4498 16.9159 19.2321 15.4318 19.2116 13.9385Z" fill="white"/>
<path d="M28.6213 19.1273H25.1694V22.8163C26.5781 22.597 27.8174 21.1977 28.6213 19.1273ZM29.4508 7.97517H32.6989C31.2675 5.94164 29.1088 4.53658 26.6699 4.05103C27.8259 4.78014 28.796 6.16632 29.4508 7.97517Z" fill="white"/>
<path d="M20.1144 19.1272H16.8667C18.2981 21.1606 20.4568 22.5655 22.8957 23.0509C21.7396 22.3218 20.7695 20.9357 20.1144 19.1272Z" fill="white"/>
<path d="M29.4503 19.1272C28.7956 20.9357 27.8255 22.3218 26.6694 23.0509C29.1083 22.5655 31.267 21.1606 32.6984 19.1272H29.4503Z" fill="white"/>
<path d="M20.1144 7.97517C20.7695 6.16632 21.7396 4.78014 22.8957 4.05103C20.4568 4.53658 18.2981 5.94164 16.8667 7.97517H20.1144Z" fill="white"/>
<path d="M29.7049 8.75024C30.1145 10.1865 30.3323 11.6707 30.3527 13.1641H34.4593C34.3997 11.6123 33.9655 10.098 33.194 8.75024H29.7049ZM25.1694 13.9389V18.3527H28.8917C29.3249 16.9206 29.5558 15.435 29.5778 13.9389H25.1694ZM34.4577 13.9389H30.3511C30.3307 15.4323 30.1129 16.9164 29.7034 18.3527H33.1901C33.9624 17.0052 34.3973 15.4909 34.4577 13.9389Z" fill="white"/>
<path d="M35.1153 12.9744C32.6851 12.8102 30.4923 11.5201 29.7198 11.016C29.6322 10.9586 29.5298 10.928 29.4251 10.928C29.3204 10.928 29.218 10.9586 29.1305 11.016C28.3557 11.5197 26.1648 12.8102 23.735 12.9744C23.5963 12.9837 23.4665 13.0462 23.3728 13.1488C23.2791 13.2515 23.2287 13.3864 23.2321 13.5253C23.2794 15.6794 23.821 23.7144 29.2398 25.7138C29.3595 25.7576 29.4908 25.7576 29.6105 25.7138C35.0289 23.7144 35.5709 15.6797 35.6178 13.5253C35.6213 13.3864 35.571 13.2515 35.4773 13.1488C35.3837 13.0462 35.254 12.9837 35.1153 12.9744Z" fill="#2DDE28"/>
<path d="M29.4264 24.0419C25.8622 22.3877 25.0711 16.9251 24.896 14.4592C26.4942 14.1495 28.0268 13.5657 29.4261 12.7336C30.8252 13.5658 32.3579 14.1496 33.9561 14.4592C33.7814 16.9247 32.9895 22.3881 29.4264 24.0419Z" fill="#EEEEEE"/>
<path d="M33.9547 14.4572C33.7796 16.9254 32.99 22.3868 29.4254 24.0411V12.7328C30.8241 13.5653 32.3566 14.1487 33.9547 14.4572Z" fill="#E0E0E0"/>
<path d="M27.3914 17.6103H26.5197C26.417 17.6103 26.3185 17.5695 26.2458 17.4968C26.1731 17.4242 26.1323 17.3256 26.1323 17.2229C26.1323 17.1202 26.1731 17.0216 26.2458 16.949C26.3185 16.8763 26.417 16.8355 26.5197 16.8355H27.3914C27.4428 16.8355 27.4921 16.8151 27.5284 16.7787C27.5647 16.7424 27.5851 16.6932 27.5851 16.6418C27.5851 16.5904 27.5647 16.5411 27.5284 16.5048C27.4921 16.4685 27.4428 16.4481 27.3914 16.4481H27.1009C26.844 16.4481 26.5976 16.346 26.416 16.1644C26.2344 15.9828 26.1323 15.7364 26.1323 15.4795C26.1323 15.2227 26.2344 14.9763 26.416 14.7947C26.5976 14.613 26.844 14.511 27.1009 14.511H27.9726C28.0753 14.511 28.1738 14.5518 28.2465 14.6245C28.3192 14.6971 28.36 14.7957 28.36 14.8984C28.36 15.0012 28.3192 15.0997 28.2465 15.1723C28.1738 15.245 28.0753 15.2858 27.9726 15.2858H27.1009C27.0495 15.2858 27.0002 15.3062 26.9639 15.3426C26.9276 15.3789 26.9072 15.4282 26.9072 15.4795C26.9072 15.5309 26.9276 15.5802 26.9639 15.6165C27.0002 15.6528 27.0495 15.6732 27.1009 15.6732H27.3914C27.6483 15.6732 27.8947 15.7753 28.0763 15.9569C28.2579 16.1386 28.36 16.3849 28.36 16.6418C28.36 16.8986 28.2579 17.145 28.0763 17.3266C27.8947 17.5083 27.6483 17.6103 27.3914 17.6103ZM29.7159 17.6103H28.8442C28.7415 17.6103 28.6429 17.5695 28.5703 17.4968C28.4976 17.4242 28.4568 17.3256 28.4568 17.2229C28.4568 17.1202 28.4976 17.0216 28.5703 16.949C28.6429 16.8763 28.7415 16.8355 28.8442 16.8355H29.7159C29.7673 16.8355 29.8166 16.8151 29.8529 16.7787C29.8892 16.7424 29.9096 16.6932 29.9096 16.6418C29.9096 16.5904 29.8892 16.5411 29.8529 16.5048C29.8166 16.4685 29.7673 16.4481 29.7159 16.4481H29.4254C29.1685 16.4481 28.9221 16.346 28.7405 16.1644C28.5589 15.9828 28.4568 15.7364 28.4568 15.4795C28.4568 15.2227 28.5589 14.9763 28.7405 14.7947C28.9221 14.613 29.1685 14.511 29.4254 14.511H30.297C30.3998 14.511 30.4983 14.5518 30.571 14.6245C30.6436 14.6971 30.6845 14.7957 30.6845 14.8984C30.6845 15.0012 30.6436 15.0997 30.571 15.1723C30.4983 15.245 30.3998 15.2858 30.297 15.2858H29.4254C29.374 15.2858 29.3247 15.3062 29.2884 15.3426C29.2521 15.3789 29.2317 15.4282 29.2317 15.4795C29.2317 15.5309 29.2521 15.5802 29.2884 15.6165C29.3247 15.6528 29.374 15.6732 29.4254 15.6732H29.7159C29.9728 15.6732 30.2191 15.7753 30.4008 15.9569C30.5824 16.1386 30.6845 16.3849 30.6845 16.6418C30.6845 16.8986 30.5824 17.145 30.4008 17.3266C30.2191 17.5083 29.9728 17.6103 29.7159 17.6103ZM32.331 17.6103H31.6046C31.3863 17.6101 31.177 17.5233 31.0227 17.369C30.8683 17.2146 30.7815 17.0053 30.7813 16.7871V14.8984C30.7813 14.7957 30.8221 14.6971 30.8948 14.6245C30.9674 14.5518 31.066 14.511 31.1687 14.511C31.2715 14.511 31.37 14.5518 31.4427 14.6245C31.5153 14.6971 31.5562 14.7957 31.5562 14.8984V16.7871C31.5562 16.7999 31.5613 16.8122 31.5703 16.8213C31.5794 16.8304 31.5917 16.8355 31.6046 16.8355H32.331C32.4337 16.8355 32.5323 16.8763 32.6049 16.949C32.6776 17.0216 32.7184 17.1202 32.7184 17.2229C32.7184 17.3256 32.6776 17.4242 32.6049 17.4968C32.5323 17.5695 32.4337 17.6103 32.331 17.6103ZM28.6893 19.5474C28.6841 19.4446 28.6998 19.3418 28.7356 19.2453C28.7714 19.1487 28.8264 19.0605 28.8973 18.9859C28.9683 18.9112 29.0536 18.8518 29.1482 18.8112C29.2428 18.7707 29.3447 18.7497 29.4476 18.7497C29.5506 18.7497 29.6525 18.7707 29.7471 18.8112C29.8417 18.8518 29.927 18.9112 29.998 18.9859C30.0689 19.0605 30.1239 19.1487 30.1597 19.2453C30.1954 19.3418 30.2112 19.4446 30.206 19.5474H30.9808C30.9623 19.1453 30.7955 18.7644 30.5125 18.4782C30.2295 18.192 29.8504 18.0208 29.4486 17.9977C29.0468 18.0208 28.6677 18.192 28.3847 18.4782C28.1018 18.7644 27.9349 19.1453 27.9164 19.5474H28.6893Z" fill="black"/>
<path d="M27.8813 19.8977H30.98C31.0006 19.8977 31.0181 19.9151 31.0181 19.9358V21.4856C31.0178 21.5061 31.0005 21.5227 30.98 21.5227H27.8813C27.8608 21.5227 27.8435 21.5061 27.8433 21.4856V19.9358C27.8433 19.9151 27.8607 19.8977 27.8813 19.8977Z" fill="#E2E2E2" stroke="black" stroke-width="0.7"/>
</svg>
