<svg width="17" height="16" viewBox="0 0 17 16" fill="none" xmlns="http://www.w3.org/2000/svg">
<g clip-path="url(#clip0_1052_4845)">
<path d="M15.8891 2.95935L6.0899 0.885556C5.67531 0.797843 5.26438 1.06532 5.17666 1.47991L4.99049 2.67631L16.2972 5.06898L16.4833 3.87258C16.571 3.45815 16.3037 3.04709 15.8891 2.95935ZM11.7683 5.32271C11.6538 4.91052 11.2231 4.66689 10.811 4.78116L8.95078 5.29759L4.56534 4.36947L4.08304 6.64831L1.06958 7.48471C0.65755 7.59901 0.413914 8.02976 0.528189 8.44181L2.22645 14.5615C2.34091 14.9736 2.77168 15.2174 3.18371 15.1029L12.9252 12.3996C13.3372 12.2851 13.5808 11.8545 13.4665 11.4423L13.175 10.3917L14.2676 10.6227C14.6822 10.7106 15.0931 10.4431 15.1808 10.0285L15.872 6.76217L11.9367 5.92941L11.7683 5.32271ZM12.8933 8.433L13.1342 7.29438C13.1704 7.1239 13.3394 7.01394 13.5099 7.04994L14.6485 7.29101C14.8192 7.32719 14.9291 7.49606 14.8931 7.6667L14.6522 8.80532C14.616 8.97581 14.447 9.08592 14.2765 9.04977L13.1379 8.80885C12.9671 8.77254 12.8571 8.60349 12.8933 8.433ZM1.2391 8.09541L3.93493 7.34753L10.2957 5.58237L10.9802 5.3922C10.9927 5.38883 11.0052 5.38723 11.0174 5.38723C11.0723 5.38723 11.1379 5.42326 11.1571 5.49225L11.2375 5.78167L11.4893 6.68897L1.4712 9.46901L1.13904 8.27245C1.11823 8.19737 1.16404 8.11622 1.2391 8.09541ZM12.8557 11.6116C12.8685 11.6581 12.855 11.6965 12.8414 11.7205C12.828 11.7445 12.802 11.7759 12.7556 11.7887L3.01435 14.4921C3.00225 14.4954 2.98975 14.4971 2.9772 14.4972C2.9223 14.4972 2.85665 14.461 2.83746 14.392L1.84692 10.8225L11.865 8.04226L12.476 10.2438L12.8557 11.6116Z" fill="black"/>
<path d="M4.58819 11.856C4.54144 11.6879 4.36599 11.5887 4.19791 11.6353L3.06026 11.9511C2.89233 11.9977 2.79293 12.1733 2.83968 12.3414L3.15534 13.4789C3.20209 13.647 3.37754 13.7462 3.54562 13.6994L4.68327 13.3838C4.85135 13.3372 4.95059 13.1616 4.90401 12.9935L4.58819 11.856Z" fill="black"/>
</g>
<defs>
<clipPath id="clip0_1052_4845">
<rect width="16" height="16" fill="white" transform="translate(0.5 -0.000244141)"/>
</clipPath>
</defs>
</svg>
