<svg width="51" height="31" viewBox="0 0 51 31" fill="none" xmlns="http://www.w3.org/2000/svg">
<rect width="50.3564" height="30.2139" transform="translate(0.268433 0.210938)" fill="#2A2A2A"/>
<path d="M19.7812 24.1297C24.3004 24.1297 27.9639 20.4661 27.9639 15.9467C27.9639 11.4273 24.3004 7.76367 19.7812 7.76367C15.262 7.76367 11.5985 11.4273 11.5985 15.9467C11.5985 20.4661 15.262 24.1297 19.7812 24.1297Z" fill="#FF6041"/>
<path d="M30.0878 24.1297C34.607 24.1297 38.2705 20.4661 38.2705 15.9467C38.2705 11.4273 34.607 7.76367 30.0878 7.76367C25.5687 7.76367 21.9052 11.4273 21.9052 15.9467C21.9052 20.4661 25.5687 24.1297 30.0878 24.1297Z" fill="#FFD941"/>
<path fill-rule="evenodd" clip-rule="evenodd" d="M24.9311 9.65262C25.8757 10.416 26.6376 11.381 27.161 12.477C27.6844 13.5729 27.956 14.7721 27.956 15.9866C27.956 17.2011 27.6844 18.4003 27.161 19.4963C26.6376 20.5922 25.8757 21.5572 24.9311 22.3206C23.9794 21.5575 23.2113 20.5904 22.6835 19.4907C22.1557 18.391 21.8817 17.1868 21.8817 15.9669C21.8817 14.7471 22.1557 13.5429 22.6835 12.4431C23.2113 11.3434 23.9794 10.4157 24.9311 9.65262Z" fill="#FFD941"/>
<mask id="mask0_1052_4892" style="mask-type:luminance" maskUnits="userSpaceOnUse" x="21" y="9" width="7" height="14">
<path d="M24.9389 9.65067C25.8835 10.4141 26.6454 11.3791 27.1688 12.475C27.6922 13.571 27.9638 14.7701 27.9638 15.9847C27.9638 17.1992 27.6922 18.3983 27.1688 19.4943C26.6454 20.5903 25.8835 21.5553 24.9389 22.3186C23.9872 21.5556 23.2191 20.5885 22.6913 19.4888C22.1635 18.3891 21.8895 17.1848 21.8895 15.965C21.8895 14.7452 22.1635 13.5409 22.6913 12.4412C23.2191 11.3415 23.9872 10.4137 24.9389 9.65067Z" fill="white"/>
</mask>
<g mask="url(#mask0_1052_4892)">
<path fill-rule="evenodd" clip-rule="evenodd" d="M20.4091 11.2236H30.1653V12.2859H20.4091V11.2236ZM20.4091 13.3087H30.1653V14.371H20.4091V13.3087ZM20.4091 15.4332H30.1653V16.4954H20.4091V15.4332ZM20.4091 17.5183H30.1653V18.5805H20.4091V17.5183ZM20.4091 19.6034H30.1653V20.6656H20.4091V19.6034Z" fill="#FF6041"/>
</g>
</svg>
