<svg width="16" height="16" viewBox="0 0 16 16" fill="none" xmlns="http://www.w3.org/2000/svg">
<g clip-path="url(#clip0_1052_4839)">
<path d="M3.52681 10.1223V12.6406H4.29217V10.1223H3.52681ZM2.99123 14.0652C2.78118 13.695 2.4307 13.5023 2.03787 13.3898C1.77037 13.3137 1.49127 13.2998 1.21274 13.301C0.819329 13.3021 0.426495 13.301 0.0330811 13.301V15.8477C0.540225 15.8437 1.04795 15.8379 1.55567 15.8315C1.80726 15.8283 2.05581 15.7761 2.28738 15.6777C2.62973 15.5315 2.91928 15.3284 3.05506 14.9611C3.16937 14.653 3.15022 14.346 2.99123 14.0652ZM1.78604 15.3093C1.61085 15.3778 1.42404 15.4117 1.23595 15.4091C1.09611 15.4079 0.95685 15.4091 0.813526 15.4091V13.6671C1.12338 13.7275 1.44136 13.6596 1.7402 13.7739C1.99435 13.872 2.19396 14.0315 2.27519 14.3008C2.40343 14.7267 2.22993 15.1381 1.78604 15.3093ZM5.12077 15.4595C4.9229 15.4137 4.70995 15.2791 4.71865 15.0377H6.58766C6.60931 14.8252 6.56964 14.611 6.47335 14.4203C6.33467 14.14 6.08922 13.9932 5.80141 13.9126C5.59083 13.8532 5.37093 13.8341 5.15327 13.8563C4.78712 13.8894 4.45522 13.9868 4.18946 14.259C3.96896 14.4853 3.88947 14.7505 3.95446 15.0586C4.00726 15.3069 4.16045 15.4891 4.36528 15.6267C4.61595 15.7978 4.90027 15.8692 5.19853 15.8796C5.408 15.8872 5.61921 15.8831 5.82694 15.8617C6.00624 15.8437 6.18148 15.7938 6.3573 15.752C6.37703 15.7479 6.40256 15.7108 6.40372 15.6876C6.40836 15.5559 6.40546 15.4253 6.40546 15.2965C6.31784 15.3359 6.23602 15.3835 6.14841 15.4085C5.81012 15.5007 5.4666 15.5356 5.12077 15.4595ZM4.90201 14.3333C5.13876 14.2085 5.38537 14.1882 5.63372 14.2984C5.76428 14.3565 5.82288 14.4522 5.88207 14.6646H4.732C4.70821 14.5514 4.779 14.3971 4.90201 14.3333ZM15.1441 15.4862C15.0571 15.4427 14.9967 15.3766 15.0049 15.2617C15.013 15.1329 15.006 15.004 15.006 14.8741V14.3959H15.6234V13.9903H15.0037V13.511H14.2424V13.9961H13.661V14.3982H14.247V14.4998C14.247 14.8114 14.2447 15.1224 14.2482 15.434C14.2505 15.553 14.2946 15.6632 14.3788 15.7479C14.5024 15.8762 14.6608 15.9348 14.8319 15.9655L15.0066 15.9998H15.2933C15.3681 15.9882 15.4453 15.9835 15.5178 15.9638C15.5642 15.9516 15.6437 15.9794 15.6472 15.8947C15.6524 15.77 15.6489 15.6452 15.6489 15.5199C15.4702 15.557 15.3025 15.5669 15.1441 15.4862ZM13.2049 10.1322L13.2055 10.554H14.2331V12.6731H14.9561V10.5529H15.9669V10.1322H13.2049ZM3.06144 11.0525C2.95641 10.7467 2.72895 10.5366 2.44695 10.3852C2.11504 10.2071 1.7547 10.1357 1.38044 10.1322C0.931899 10.1276 0.481619 10.131 0.0330811 10.131V12.6778C0.492644 12.6737 0.951627 12.6604 1.41119 12.6639C1.71013 12.6695 2.00726 12.6163 2.28564 12.5072C2.53921 12.4068 2.76145 12.2594 2.92334 12.036C3.14268 11.7337 3.17981 11.3972 3.06144 11.0525ZM2.04077 11.9937C1.88241 12.1239 1.68849 12.2033 1.4843 12.2217C1.32647 12.2368 1.16632 12.2327 1.00791 12.2409C0.945245 12.2432 0.881997 12.2536 0.812366 12.2606V10.5198C0.93422 10.5198 1.05259 10.5146 1.17096 10.5198C1.29282 10.5256 1.41409 10.5407 1.53537 10.5529C1.75296 10.572 1.93458 10.6742 2.08777 10.8221C2.40227 11.1239 2.39879 11.6972 2.04077 11.9937ZM14.3759 4.14917C14.3142 3.78075 14.1943 3.42448 14.0208 3.09368C13.8491 2.75663 13.6335 2.44385 13.3796 2.16353C13.0916 1.84508 12.7685 1.5603 12.4163 1.31462C11.9921 1.01839 11.5334 0.774828 11.0504 0.589297C10.7851 0.486044 10.5148 0.396375 10.2404 0.320638C9.90963 0.233599 9.57192 0.170351 9.23537 0.103622C9.08079 0.0742721 8.92492 0.052198 8.76827 0.0374725C8.63539 0.0235464 8.50309 0.0212254 8.35106 0.0131018C8.3853 0.0804115 8.31508 0.158746 8.42475 0.187179C8.67252 0.252748 8.92784 0.306131 9.16574 0.399553C9.46167 0.515604 9.75528 0.646162 10.028 0.808054C10.4203 1.04074 10.776 1.32912 11.0609 1.69295C11.2274 1.9059 11.3846 2.1264 11.4937 2.37359C11.597 2.60859 11.6933 2.84766 11.7728 3.09194C11.828 3.26022 11.8552 3.43894 11.8848 3.61476C11.9191 3.83003 11.955 4.04647 11.9643 4.26406C11.9753 4.51531 11.9678 4.76831 11.9492 5.01898C11.9308 5.25268 11.8969 5.48491 11.8477 5.71412C11.7419 6.21541 11.5393 6.69122 11.2512 7.11486C11.0409 7.42636 10.7893 7.70785 10.5032 7.95159C10.2282 8.19124 9.92298 8.38679 9.59687 8.54404C9.14995 8.75809 8.67011 8.89522 8.17756 8.94964C7.91474 8.97508 7.65039 8.98109 7.38667 8.96762C6.82043 8.94958 6.25745 8.87455 5.70625 8.74364C5.23334 8.62237 4.76856 8.46744 4.3351 8.23766C4.06466 8.09798 3.80075 7.94598 3.54421 7.78216C3.24267 7.58581 2.9697 7.34876 2.73302 7.07773C2.4748 6.78296 2.26997 6.4615 2.18467 6.07388C2.12781 5.81161 2.14405 5.55571 2.26649 5.31375C2.42084 5.00679 2.66338 4.77991 2.93901 4.58378C3.22386 4.38584 3.52907 4.21894 3.84943 4.08592C4.30899 3.88922 4.78364 3.73545 5.27512 3.64203C5.6014 3.57572 5.92982 3.52037 6.25982 3.47607C6.57449 3.43921 6.89066 3.41656 7.20737 3.40818C7.46733 3.39948 7.72787 3.41689 7.9884 3.42211C8.01451 3.42269 8.04236 3.41979 8.07486 3.41805V-0.000244141H7.56946C7.56133 0.00497817 7.55321 0.0148425 7.54392 0.0154228C7.3124 0.0276082 7.08204 0.0374725 6.85052 0.0513987C6.72402 0.0583618 6.59636 0.0688064 6.47045 0.0873746C6.27374 0.115807 6.0782 0.148302 5.88381 0.186018C5.62385 0.236501 5.3581 0.27944 5.10394 0.351972C4.75637 0.451776 4.4117 0.562025 4.07515 0.694903C3.79314 0.806893 3.5181 0.944414 3.25351 1.09238C2.93604 1.27155 2.63945 1.48543 2.36919 1.73008C2.13245 1.9442 1.9195 2.17688 1.73323 2.43509C1.51651 2.73383 1.34377 3.06212 1.22029 3.40992C1.17271 3.54745 1.12454 3.68613 1.09843 3.82829C1.05897 4.04182 1.04215 4.26 1.01023 4.47586C0.966134 4.77759 1.00095 5.07642 1.05317 5.37119C1.10075 5.63811 1.18373 5.89691 1.29282 6.14758C1.44796 6.50683 1.65564 6.84104 1.90905 7.13924C2.07965 7.34058 2.26301 7.53555 2.4632 7.70847C2.69878 7.91272 2.94829 8.10594 3.21115 8.27538C3.48561 8.45004 3.77806 8.59742 4.06935 8.74249C4.26779 8.84113 4.47379 8.92933 4.685 8.99838C4.99222 9.09881 5.30329 9.18708 5.61747 9.26297C5.88961 9.32854 6.16639 9.38077 6.44318 9.42138C6.92502 9.48799 7.41194 9.51052 7.89788 9.4887C8.23675 9.47477 8.57678 9.4533 8.91333 9.42197C9.15502 9.40188 9.39517 9.36622 9.63227 9.3152C9.95431 9.24267 10.2717 9.14518 10.5926 9.05872C10.9441 8.95899 11.2849 8.82448 11.6098 8.65719C11.8651 8.52953 12.1076 8.37518 12.3525 8.2278C12.6325 8.05361 12.8921 7.84866 13.1266 7.61679C13.2386 7.50944 13.3453 7.39977 13.444 7.2814C13.5722 7.12937 13.6975 6.97502 13.8055 6.81081C13.9866 6.52895 14.132 6.22567 14.2383 5.90793C14.3507 5.57039 14.4141 5.21844 14.4263 4.86289C14.4328 4.62391 14.4159 4.38487 14.3759 4.14917ZM11.7723 14.0002V15.8611H12.5051V14.0002H11.7723ZM11.7723 13.1211V13.5981H12.504V13.1211H11.7723Z" fill="white"/>
<path d="M7.94951 3.62437C7.76789 3.647 7.58047 3.65571 7.40059 3.69574C7.10833 3.75962 6.8262 3.86329 6.56212 4.00386C6.20651 4.18822 5.8925 4.44358 5.63951 4.75413C5.48389 4.94301 5.36021 5.15607 5.27337 5.38487C5.20664 5.56939 5.14049 5.75334 5.14049 5.95294C5.13991 6.14153 5.12598 6.33243 5.15152 6.51811C5.17821 6.71018 5.24726 6.89296 5.34068 7.06704C5.46544 7.29682 5.62327 7.50049 5.81417 7.67224C5.96678 7.80919 6.13969 7.92814 6.31261 8.03897C6.58765 8.2142 6.88184 8.34824 7.19866 8.43064C7.3768 8.47648 7.55378 8.52232 7.73424 8.56178C7.83636 8.58383 7.94139 8.59079 8.0528 8.60356V3.60522C8.0145 3.61219 7.98201 3.62031 7.94951 3.62437ZM10.1116 10.5515V10.1227H8.08065V12.6572H10.093V12.2209H8.7729V11.6133H10.0286V11.177H8.77406V10.5515H10.1116ZM6.86095 11.4393C7.03967 11.3923 7.20911 11.3313 7.32226 11.1567C7.40523 11.0267 7.42438 10.8915 7.42032 10.7464C7.4151 10.548 7.31065 10.4006 7.15224 10.3078C6.90795 10.1639 6.63407 10.1151 6.35033 10.1163C6.18785 10.1174 6.02422 10.1163 5.86175 10.1163H4.94727V12.6561H5.70334V11.6516C5.81823 11.6516 5.9279 11.6441 6.03641 11.6528C6.16813 11.6621 6.28302 11.7178 6.34917 11.8379C6.48901 12.0921 6.62537 12.3497 6.75941 12.6073C6.77972 12.6479 6.79886 12.6642 6.8447 12.6642C7.07507 12.6619 7.30601 12.663 7.53579 12.6625C7.55262 12.6625 7.56945 12.6561 7.59614 12.6514C7.32864 12.2493 7.16153 11.8002 6.86095 11.4393ZM6.53485 11.0905C6.42038 11.1677 6.28584 11.2096 6.14782 11.2112C6.00217 11.2124 5.85711 11.2112 5.7016 11.2112V10.5509C5.90179 10.5509 6.1014 10.5521 6.30042 10.5509C6.41125 10.5497 6.49191 10.6072 6.57082 10.6745C6.6921 10.7784 6.65902 11.0093 6.53485 11.0905ZM12.6101 12.24C12.309 12.2487 12.0102 12.2516 11.7189 12.1576C11.4868 12.0839 11.2883 11.969 11.1821 11.7387C11.0974 11.5542 11.1026 11.3615 11.1502 11.1654C11.1873 11.0058 11.2622 10.8677 11.3846 10.7656C11.5953 10.5846 11.8558 10.5347 12.1221 10.523C12.2446 10.5167 12.3682 10.5265 12.4906 10.5387C12.6502 10.5544 12.8115 10.5834 12.9861 10.6089C13.0053 10.501 13.0279 10.3797 13.0465 10.2596C13.05 10.2474 13.0308 10.2236 13.0146 10.219C12.8196 10.1482 12.6212 10.0919 12.414 10.0832C12.2592 10.0756 12.104 10.0758 11.9492 10.0838C11.7975 10.0913 11.6467 10.1115 11.4984 10.1441C11.1961 10.2167 10.9059 10.3258 10.6686 10.5445C10.5435 10.6522 10.4463 10.7886 10.3854 10.942C10.3126 11.1276 10.2888 11.3288 10.3164 11.5263C10.3506 11.7723 10.4435 11.9876 10.61 12.1681C10.816 12.3903 11.0777 12.5284 11.3649 12.6079C11.6617 12.6941 11.9707 12.7308 12.2794 12.7164C12.5244 12.7042 12.7675 12.6665 13.0047 12.6038C12.9919 12.4646 12.9786 12.3282 12.967 12.1924C12.8382 12.2099 12.7256 12.236 12.6101 12.24ZM10.4533 14.7108C10.4249 14.5425 10.3506 14.3853 10.2386 14.2564C10.0529 14.0475 9.80808 13.9495 9.54406 13.9303C9.16341 13.9019 8.78334 13.9193 8.4584 14.2216V13.1046H7.71509V15.8434H8.4671V15.6554C8.48277 15.6595 8.49612 15.6583 8.50308 15.6647C8.67774 15.8307 8.89823 15.8916 9.12511 15.9119C9.38449 15.9357 9.64735 15.9287 9.89105 15.8109C10.1179 15.7013 10.292 15.5417 10.3907 15.3032C10.4684 15.11 10.4893 14.915 10.4533 14.7108ZM9.4135 15.4158C9.28615 15.4835 9.14095 15.51 8.99787 15.4919C8.8548 15.4737 8.72086 15.4116 8.61449 15.3142C8.50424 15.2156 8.44099 15.0868 8.46246 14.9376C8.4172 14.6226 8.74621 14.3829 9.00094 14.3626C9.20751 14.3458 9.38971 14.387 9.54174 14.5268C9.83651 14.7978 9.75933 15.2307 9.4135 15.4158Z" fill="white"/>
</g>
<defs>
<clipPath id="clip0_1052_4839">
<rect width="16" height="16" fill="white" transform="translate(0 -0.000244141)"/>
</clipPath>
</defs>
</svg>
