<svg width="51" height="31" viewBox="0 0 51 31" fill="none" xmlns="http://www.w3.org/2000/svg">
<rect width="50.3564" height="30.2139" transform="translate(0 0.211182)" fill="#2A2A2A"/>
<path fill-rule="evenodd" clip-rule="evenodd" d="M32.1321 5.76215C29.5844 5.15802 27.5472 4.1135 25.1337 2.45303C24.6683 2.13283 24.0851 2.13042 23.617 2.44675C21.1733 4.09847 18.9173 5.14793 16.5894 5.74578C15.9059 5.92135 15.4434 6.51766 15.4434 7.2234V20.3295H33.3056V7.24651C33.3056 6.53075 32.8284 5.92722 32.132 5.76208L32.1321 5.76215Z" fill="#39B33B"/>
<path fill-rule="evenodd" clip-rule="evenodd" d="M32.1311 5.76211C29.5834 5.15798 27.5462 4.11346 25.1328 2.45299C24.6862 2.14575 24.1313 2.13119 23.6736 2.4099C23.737 2.44057 23.7989 2.47651 23.8588 2.51779C26.2723 4.1782 28.3095 5.22278 30.8572 5.82691C31.5535 5.99205 32.0308 6.59558 32.0308 7.31135V20.3295H33.3047V7.24654C33.3047 6.53078 32.8275 5.92725 32.1311 5.76211Z" fill="#33A235"/>
<path fill-rule="evenodd" clip-rule="evenodd" d="M17.8114 7.90095V18.659H30.9394V7.86608C28.59 7.18398 26.437 6.11715 24.3853 4.79065C22.2895 6.18089 20.2396 7.23883 17.8114 7.90095Z" fill="#72D561"/>
<path fill-rule="evenodd" clip-rule="evenodd" d="M26.1792 9.44416C26.5727 9.04846 27.2124 9.04673 27.6081 9.44022C28.0038 9.83371 28.0055 10.4735 27.6121 10.8692L24.2373 14.2758C23.8464 14.6688 23.2127 14.6732 22.8165 14.2875L21.1467 12.66C20.7467 12.2709 20.7378 11.6311 21.127 11.2311C21.5161 10.831 22.1558 10.8222 22.5558 11.2113L23.5085 12.1401L26.1792 9.44423V9.44416Z" fill="#EFF4F7"/>
<path fill-rule="evenodd" clip-rule="evenodd" d="M24.1871 14.3218C23.7939 14.6674 23.1962 14.6559 22.8165 14.2864L21.1467 12.6589C20.7467 12.2698 20.7378 11.63 21.127 11.23C21.4101 10.9388 21.8259 10.8549 22.1856 10.9808C22.1657 10.9983 22.1462 11.0167 22.1275 11.036C21.7384 11.4361 21.7472 12.0759 22.1472 12.4649L23.817 14.0925C23.9221 14.195 24.0484 14.2733 24.1871 14.3218Z" fill="#DEE8EE"/>
<path fill-rule="evenodd" clip-rule="evenodd" d="M16.0159 25.8712H8L11.1309 22.8405L8 19.8098H16.0159C16.0926 19.8098 16.1551 19.8723 16.1551 19.949V25.7319C16.155 25.7688 16.1403 25.8042 16.1142 25.8303C16.0882 25.8564 16.0528 25.8711 16.0159 25.8711V25.8712Z" fill="#D4D4D4"/>
<path fill-rule="evenodd" clip-rule="evenodd" d="M32.9849 25.8712H41.0008L37.8699 22.8405L41.0008 19.8098H32.9849C32.948 19.8099 32.9126 19.8246 32.8866 19.8507C32.8605 19.8768 32.8458 19.9121 32.8457 19.949V25.7319C32.8457 25.8086 32.9082 25.8711 32.9849 25.8711V25.8712Z" fill="#D4D4D4"/>
<path d="M35.1303 16.1268H13.8648C13.68 16.1268 13.5303 16.2766 13.5303 16.4613V23.3688C13.5303 23.5535 13.68 23.7033 13.8648 23.7033H35.1303C35.3151 23.7033 35.4648 23.5535 35.4648 23.3688V16.4613C35.4648 16.2766 35.3151 16.1268 35.1303 16.1268Z" fill="white"/>
<path d="M19.1945 27.7263V27.7284C19.3306 27.7284 19.433 27.7031 19.5018 27.6525C19.5706 27.6005 19.605 27.5281 19.605 27.4354C19.605 27.3426 19.5728 27.2702 19.5084 27.2182C19.4455 27.1648 19.324 27.1065 19.144 27.0432C18.7547 26.9266 18.4788 26.805 18.3164 26.6785C18.1539 26.5506 18.0727 26.3721 18.0727 26.143C18.0727 25.9125 18.1759 25.7263 18.3822 25.5843C18.5886 25.441 18.8535 25.3693 19.1769 25.3693C19.5018 25.3693 19.7652 25.448 19.9672 25.6054C20.1692 25.7628 20.2665 25.9652 20.2592 26.2126L20.2548 26.2252H19.6072C19.6072 26.1114 19.5677 26.0207 19.4886 25.9533C19.4111 25.8858 19.305 25.8521 19.1703 25.8521C19.0372 25.8521 18.9318 25.8802 18.8542 25.9364C18.7766 25.9926 18.7379 26.0615 18.7379 26.143C18.7379 26.2245 18.7745 26.2899 18.8476 26.3391C18.9208 26.3883 19.0672 26.4508 19.2867 26.5267C19.6291 26.6237 19.8794 26.741 20.0375 26.8788C20.1955 27.0165 20.2746 27.2042 20.2746 27.4417C20.2746 27.6792 20.1765 27.8668 19.9804 28.0046C19.7857 28.1423 19.5238 28.2112 19.1945 28.2112C18.972 28.2112 18.7708 28.1775 18.5908 28.11C18.4108 28.0411 18.2659 27.9364 18.1561 27.7959C18.0478 27.6539 17.9959 27.4867 18.0003 27.2941L18.0025 27.2836H18.6544C18.6544 27.4396 18.6976 27.5527 18.784 27.623C18.8718 27.6919 19.0086 27.7263 19.1945 27.7263Z" fill="white"/>
<path d="M21.5327 26.8935C21.5327 26.6785 21.4405 26.571 21.2561 26.571C21.0761 26.571 20.9751 26.6919 20.9532 26.9336L20.9597 26.9441H21.5327V26.8935ZM20.2682 27.2119V27.1381C20.2682 26.8176 20.3553 26.5604 20.5295 26.3665C20.7036 26.1725 20.9458 26.0763 21.2561 26.0777C21.5459 26.0777 21.7727 26.1606 21.9366 26.3264C22.102 26.4923 22.1847 26.7193 22.1847 27.0074V27.3447H20.9641L20.9597 27.3552C20.9744 27.4649 21.0197 27.5527 21.0958 27.6188C21.1719 27.6848 21.2707 27.7179 21.3922 27.7179C21.5151 27.7179 21.6132 27.7094 21.6864 27.6926C21.7595 27.6757 21.8598 27.642 21.9871 27.5914L22.1452 27.9793C22.0471 28.0481 21.9235 28.1037 21.7742 28.1458C21.6264 28.188 21.4698 28.2091 21.3044 28.2091C20.9927 28.2091 20.7417 28.1156 20.5514 27.9287C20.3626 27.7418 20.2682 27.5028 20.2682 27.2119Z" fill="white"/>
<path d="M22.7667 27.1676C22.7667 27.3489 22.793 27.486 22.8457 27.5787C22.8984 27.6715 22.9877 27.7179 23.1136 27.7179C23.2906 27.7179 23.3792 27.6258 23.3792 27.4417H23.9895L23.9939 27.4522C23.9982 27.6757 23.9178 27.8584 23.7524 28.0004C23.5885 28.1409 23.3755 28.2112 23.1136 28.2112C22.7945 28.2112 22.5457 28.1163 22.3672 27.9266C22.1901 27.7368 22.1015 27.4838 22.1015 27.1676V27.1233C22.1015 26.8085 22.1901 26.5562 22.3672 26.3665C22.5442 26.1753 22.7916 26.0798 23.1092 26.0798C23.3828 26.0798 23.5994 26.1529 23.759 26.299C23.9199 26.4438 23.9982 26.6413 23.9939 26.8914L23.9895 26.9041H23.3792C23.3792 26.8029 23.3558 26.7228 23.3089 26.6637C23.2636 26.6033 23.197 26.5731 23.1092 26.5731C22.9862 26.5731 22.8984 26.6202 22.8457 26.7143C22.793 26.8085 22.7667 26.9448 22.7667 27.1233V27.1676Z" fill="white"/>
<path d="M24.69 28.2112C24.4632 28.2112 24.2883 28.1423 24.1653 28.0046C24.0424 27.8654 23.9809 27.6539 23.9809 27.37V26.1177H24.6483V27.3742C24.6483 27.6033 24.7354 27.7179 24.9095 27.7179C25.0515 27.7179 25.1613 27.6799 25.2388 27.604V26.1177H25.9062V28.1711H25.3223L25.2805 27.9287C25.1386 28.117 24.9417 28.2112 24.69 28.2112Z" fill="white"/>
<path d="M26.6704 28.1669H26.0009V26.1135H26.6309L26.6528 26.415C26.7494 26.1887 26.8958 26.0756 27.0919 26.0756C27.1621 26.0756 27.2236 26.0833 27.2763 26.0987L27.2083 26.6785L26.9668 26.6764C26.8175 26.6764 26.7187 26.7242 26.6704 26.8198V28.1669Z" fill="white"/>
<path d="M28.4357 26.8935C28.4357 26.6785 28.3435 26.571 28.1591 26.571C27.9791 26.571 27.8781 26.6919 27.8561 26.9336L27.8627 26.9441H28.4357V26.8935ZM27.1712 27.2119V27.1381C27.1712 26.8176 27.2583 26.5604 27.4324 26.3665C27.6066 26.1725 27.8488 26.0763 28.1591 26.0777C28.4488 26.0777 28.6757 26.1606 28.8396 26.3264C29.005 26.4923 29.0877 26.7193 29.0877 27.0074V27.3447H27.8671L27.8627 27.3552C27.8773 27.4649 27.9227 27.5527 27.9988 27.6188C28.0749 27.6848 28.1737 27.7179 28.2952 27.7179C28.4181 27.7179 28.5162 27.7094 28.5893 27.6926C28.6625 27.6757 28.7628 27.642 28.8901 27.5914L29.0481 27.9793C28.9501 28.0481 28.8264 28.1037 28.6771 28.1458C28.5293 28.188 28.3727 28.2091 28.2074 28.2091C27.8956 28.2091 27.6446 28.1156 27.4544 27.9287C27.2656 27.7418 27.1712 27.5028 27.1712 27.2119Z" fill="white"/>
<path d="M29.8475 26.0798C30.0392 26.0798 30.2002 26.1641 30.3304 26.3328V25.2112H31V28.1711H30.4204L30.3722 27.9181C30.2375 28.1135 30.0619 28.2112 29.8453 28.2112C29.5848 28.2112 29.3814 28.1191 29.235 27.935C29.0887 27.7509 29.0155 27.5021 29.0155 27.1887L29.0133 27.1486C29.0133 26.8212 29.0865 26.5611 29.2328 26.3686C29.3792 26.176 29.5841 26.0798 29.8475 26.0798ZM29.6828 27.1486V27.1887C29.6828 27.363 29.7085 27.4951 29.7597 27.585C29.8124 27.6736 29.8972 27.7179 30.0143 27.7179C30.1563 27.7179 30.2617 27.6694 30.3304 27.5724V26.7418C30.2587 26.6293 30.1548 26.5731 30.0187 26.5731C29.7948 26.5731 29.6828 26.7649 29.6828 27.1486Z" fill="white"/>
<path d="M21.007 21.3349V21.3386C21.2357 21.3386 21.4078 21.2943 21.5234 21.2058C21.6389 21.1148 21.6967 20.9882 21.6967 20.8259C21.6967 20.6636 21.6426 20.537 21.5344 20.446C21.4287 20.3525 21.2246 20.2505 20.9221 20.1398C20.268 19.9357 19.8045 19.723 19.5316 19.5017C19.2586 19.278 19.1222 18.9657 19.1222 18.5649C19.1222 18.1616 19.2955 17.8358 19.6422 17.5874C19.9889 17.3366 20.434 17.2112 20.9775 17.2112C21.5234 17.2112 21.966 17.3489 22.3053 17.6243C22.6447 17.8997 22.8082 18.2538 22.7959 18.6866L22.7885 18.7087H21.7004C21.7004 18.5095 21.634 18.3509 21.5012 18.2329C21.3709 18.1149 21.1926 18.0558 20.9664 18.0558C20.7426 18.0558 20.5656 18.105 20.4353 18.2034C20.3049 18.3017 20.2398 18.4222 20.2398 18.5649C20.2398 18.7075 20.3012 18.8218 20.4242 18.9079C20.5471 18.994 20.793 19.1034 21.1619 19.2362C21.7373 19.4058 22.1578 19.6112 22.4233 19.8521C22.6889 20.0931 22.8217 20.4214 22.8217 20.837C22.8217 21.2525 22.657 21.5808 22.3274 21.8218C22.0004 22.0628 21.5602 22.1833 21.007 22.1833C20.6332 22.1833 20.2951 22.1242 19.9926 22.0062C19.6902 21.8857 19.4467 21.7025 19.2623 21.4566C19.0803 21.2083 18.9931 20.9157 19.0004 20.5788L19.0041 20.5603H20.0996C20.0996 20.8333 20.1721 21.0312 20.3172 21.1542C20.4648 21.2747 20.6947 21.3349 21.007 21.3349Z" fill="black"/>
<path d="M24.8471 21.3349V21.3386C25.0758 21.3386 25.2479 21.2943 25.3635 21.2058C25.4791 21.1148 25.5369 20.9882 25.5369 20.8259C25.5369 20.6636 25.4828 20.537 25.3746 20.446C25.2688 20.3525 25.0647 20.2505 24.7623 20.1398C24.1082 19.9357 23.6447 19.723 23.3717 19.5017C23.0988 19.278 22.9623 18.9657 22.9623 18.5649C22.9623 18.1616 23.1357 17.8358 23.4824 17.5874C23.8291 17.3366 24.2742 17.2112 24.8176 17.2112C25.3635 17.2112 25.8061 17.3489 26.1455 17.6243C26.4848 17.8997 26.6483 18.2538 26.636 18.6866L26.6287 18.7087H25.5406C25.5406 18.5095 25.4742 18.3509 25.3414 18.2329C25.2111 18.1149 25.0328 18.0558 24.8066 18.0558C24.5828 18.0558 24.4057 18.105 24.2754 18.2034C24.1451 18.3017 24.0799 18.4222 24.0799 18.5649C24.0799 18.7075 24.1414 18.8218 24.2643 18.9079C24.3873 18.994 24.6332 19.1034 25.002 19.2362C25.5774 19.4058 25.9979 19.6112 26.2635 19.8521C26.5291 20.0931 26.6619 20.4214 26.6619 20.837C26.6619 21.2525 26.4971 21.5808 26.1676 21.8218C25.8406 22.0628 25.4004 22.1833 24.8471 22.1833C24.4734 22.1833 24.1352 22.1242 23.8328 22.0062C23.5303 21.8857 23.2869 21.7025 23.1025 21.4566C22.9205 21.2083 22.8332 20.9157 22.8406 20.5788L22.8443 20.5603H23.9398C23.9398 20.8333 24.0123 21.0312 24.1574 21.1542C24.3049 21.2747 24.5348 21.3349 24.8471 21.3349Z" fill="black"/>
<path d="M27.9385 17.2739V21.2427H30.0188V22.1058H26.8135V17.2739H27.9385Z" fill="black"/>
</svg>
