<svg width="52" height="31" viewBox="0 0 52 31" fill="none" xmlns="http://www.w3.org/2000/svg">
<rect width="50.3564" height="30.2139" transform="translate(0.90271 0.210938)" fill="#2A2A2A"/>
<g clip-path="url(#clip0_1052_4902)">
<path d="M41.6004 27.2109H10.4004C9.76385 27.2109 9.1534 26.958 8.70331 26.5079C8.25322 26.0579 8.00037 25.4474 8.00037 24.8109V14.7149H9.72937L10.1194 13.7709H10.9924L11.3814 14.7109H14.7834V13.9959L15.0874 14.7159H16.8534L17.1574 13.9839V14.7139H25.6104V13.1699H25.7704C25.8844 13.1739 25.9174 13.1839 25.9174 13.3739V14.7159H30.2904V14.3569C30.7374 14.5839 31.2644 14.7169 31.8234 14.7169L31.9184 14.7159H31.9134H33.7534L34.1474 13.7759H35.0204L35.4054 14.7159H38.9514V13.8219L39.4874 14.7159H42.3234V8.81189H39.5164V9.50889L39.1234 8.81189H36.2374V9.50889L35.8764 8.81189H31.9794C31.389 8.78338 30.8011 8.90482 30.2704 9.16489L30.2914 9.15589V8.81189H27.6034V9.15589C27.2779 8.89972 26.867 8.77708 26.4544 8.81289H26.4604H16.6374L15.9784 10.3379L15.3014 8.81289H12.2074V9.50989L11.8664 8.81289H9.22637L8.00337 11.6129V5.61289C8.00337 4.97637 8.25622 4.36592 8.70631 3.91583C9.1564 3.46575 9.76685 3.21289 10.4034 3.21289H41.6034C42.2399 3.21289 42.8503 3.46575 43.3004 3.91583C43.7505 4.36592 44.0034 4.97637 44.0034 5.61289V16.0929H42.1304C42.099 16.0916 42.0654 16.0909 42.0294 16.0909C41.5954 16.0909 41.1924 16.2209 40.8564 16.4439L40.8644 16.4389V16.0929H38.0944C37.6616 16.0687 37.2334 16.1917 36.8794 16.4419L36.8854 16.4379V16.0919H31.9394V16.4379C31.5342 16.2103 31.0771 16.0911 30.6124 16.0919H30.5734H30.5754H27.3124V16.4379C26.8862 16.1646 26.3802 16.043 25.8764 16.0929L25.8854 16.0919H22.2344L21.3984 16.9959L20.6164 16.0919H15.1624V21.9999H20.5144L21.3754 21.0819L22.1864 21.9999H25.4854V20.6169H25.9454C26.3877 20.635 26.829 20.5611 27.2414 20.3999L27.2194 20.4079V22.0019H29.9394V20.4629H30.0704C30.2364 20.4629 30.2534 20.4689 30.2534 20.6369V22.0029H38.5194L38.6204 22.0049C39.0944 22.0049 39.5364 21.8629 39.9044 21.6199L39.8954 21.6249V22.0029H42.5174L42.6424 22.0049C43.1334 22.0049 43.6004 21.9039 44.0244 21.7209L44.0014 21.7299V24.8119C44.0014 25.4484 43.7485 26.0589 43.2984 26.5089C42.8483 26.959 42.2379 27.2119 41.6014 27.2119L41.6004 27.2109ZM29.1054 21.1719H28.0874V16.9369H30.4234C30.8453 16.8978 31.2701 16.9688 31.6564 17.1429L31.6404 17.1369C31.9534 17.3089 32.1624 17.6369 32.1624 18.0129L32.1604 18.0799V18.0769L32.1614 18.1149C32.1614 18.6009 31.8684 19.0189 31.4484 19.2009L31.4404 19.2039C31.6414 19.2759 31.8094 19.3989 31.9344 19.5579L31.9364 19.5599C32.0773 19.7937 32.1364 20.0678 32.1044 20.3389L32.1054 20.3329V21.1709H31.0894V20.6409C31.1386 20.3523 31.0806 20.0557 30.9264 19.8069L30.9294 19.8119C30.8238 19.7318 30.7031 19.6739 30.5745 19.6417C30.446 19.6096 30.3122 19.6039 30.1814 19.6249L30.1874 19.6239H29.1054V21.1709V21.1719ZM29.1054 17.8119V18.7629H30.3354C30.5091 18.7789 30.6839 18.7478 30.8414 18.6729L30.8354 18.6759C30.8997 18.6343 30.9525 18.5773 30.9892 18.51C31.0259 18.4428 31.0452 18.3675 31.0454 18.2909L31.0444 18.2679C31.0499 18.1914 31.0334 18.1159 30.9967 18.0485C30.96 17.9811 30.9047 17.9257 30.8374 17.8889L30.8354 17.8879C30.6832 17.8215 30.5168 17.794 30.3514 17.8079H30.3554L29.1054 17.8119ZM20.0804 21.1709H16.0734V16.9369H20.1434L21.3884 18.3249L22.6754 16.9369H25.9084C27.0564 16.9369 27.6144 17.3939 27.6144 18.3319C27.6144 19.2869 27.0374 19.7509 25.8544 19.7509H24.5894V21.1699H22.6224L21.3764 19.7709L20.0804 21.1709ZM23.5814 17.3909L22.0274 19.0609L23.5814 20.7849V17.3909ZM17.0824 19.4459V20.2879H19.5704L20.7204 19.0459L19.6144 17.8119H17.0814V18.5819H19.3034V19.4449L17.0824 19.4459ZM24.5894 17.8129V18.8909H25.8964C26.2964 18.8909 26.5264 18.6869 26.5264 18.3309C26.5264 17.9909 26.3124 17.8119 25.9074 17.8119L24.5894 17.8129ZM42.6274 21.1729H40.6734V20.2629H42.6194C42.765 20.2829 42.9126 20.2448 43.0304 20.1569L43.0294 20.1579C43.067 20.1231 43.0971 20.0809 43.1175 20.0339C43.138 19.9869 43.1485 19.9362 43.1484 19.8849V19.8689C43.1483 19.8183 43.1373 19.7683 43.116 19.7224C43.0948 19.6765 43.0639 19.6357 43.0254 19.6029C42.9225 19.5269 42.7943 19.4933 42.6674 19.5089H42.6694L42.4824 19.5029C41.5684 19.4789 40.5334 19.4509 40.5334 18.1979C40.5334 17.5879 40.9154 16.9369 41.9844 16.9369H44.0014V17.8389H42.1564C42.0139 17.8234 41.8701 17.852 41.7444 17.9209L41.7484 17.9189C41.6991 17.9515 41.6594 17.9967 41.6336 18.0498C41.6077 18.1029 41.5966 18.162 41.6014 18.2209V18.2199V18.2309C41.6014 18.2983 41.6226 18.3639 41.6621 18.4185C41.7016 18.4731 41.7574 18.5138 41.8214 18.5349L41.8234 18.5359C41.9501 18.5754 42.0829 18.5917 42.2154 18.5839H42.2124L42.7614 18.5979C43.1752 18.5563 43.5888 18.6795 43.9124 18.9409L43.9094 18.9389C43.9394 18.9629 43.9657 18.9892 43.9884 19.0179L43.9894 19.0189L44.0014 20.6309C43.833 20.8272 43.6191 20.9792 43.3783 21.0735C43.1375 21.1678 42.8773 21.2016 42.6204 21.1719L42.6274 21.1729ZM38.6784 21.1729H36.7064V20.2629H38.6684C38.8152 20.2818 38.9636 20.2439 39.0834 20.1569L39.0814 20.1579C39.1189 20.123 39.1487 20.0808 39.169 20.0338C39.1893 19.9868 39.1997 19.9361 39.1994 19.8849V19.8749C39.1995 19.8234 39.1886 19.7725 39.1674 19.7255C39.1462 19.6786 39.1151 19.6368 39.0764 19.6029C38.9709 19.5284 38.8418 19.4949 38.7134 19.5089H38.7154L38.5294 19.5029C37.6184 19.4789 36.5844 19.4509 36.5844 18.1979C36.5844 17.5879 36.9644 16.9369 38.0314 16.9369H40.0594V17.8389H38.2034C38.0619 17.824 37.9192 17.8526 37.7944 17.9209L37.7984 17.9189C37.7458 17.955 37.704 18.0047 37.6774 18.0626C37.6508 18.1206 37.6403 18.1846 37.647 18.248C37.6538 18.3115 37.6776 18.3719 37.7158 18.4229C37.7541 18.4739 37.8054 18.5136 37.8644 18.5379L37.8664 18.5389C37.9947 18.579 38.1292 18.5953 38.2634 18.5869H38.2604L38.8054 18.6009C39.2215 18.5598 39.6371 18.6833 39.9634 18.9449L39.9604 18.9419C40.0704 19.0629 40.1541 19.2055 40.2061 19.3606C40.2581 19.5158 40.2772 19.68 40.2624 19.8429V19.8379C40.2654 20.7209 39.7304 21.1709 38.6754 21.1709L38.6784 21.1729ZM36.1004 21.1729H32.7204V16.9359H36.0974V17.8109H33.7304V18.5809H36.0424V19.4439H33.7304V20.2859L36.1004 20.2899V21.1699V21.1729ZM38.0704 13.8869H36.0094L35.6154 12.9429H33.5134L33.1314 13.8869H31.9474C31.4156 13.9149 30.892 13.7474 30.4754 13.4159L30.4804 13.4189C30.2823 13.2005 30.132 12.9431 30.039 12.6633C29.946 12.3835 29.9124 12.0874 29.9404 11.7939L29.9394 11.8019C29.9128 11.5029 29.9478 11.2017 30.042 10.9167C30.1363 10.6318 30.2878 10.3691 30.4874 10.1449L30.4854 10.1469C30.6953 9.96312 30.9408 9.82459 31.2066 9.73994C31.4724 9.65529 31.7529 9.62634 32.0304 9.65489L32.0224 9.65389H33.0024V10.5569H32.0424C31.9019 10.5386 31.7591 10.5516 31.6242 10.595C31.4894 10.6384 31.3658 10.7111 31.2624 10.8079L31.2634 10.8069C31.0502 11.081 30.9464 11.4246 30.9724 11.7709V11.7659C30.9408 12.1217 31.0408 12.4768 31.2534 12.7639L31.2504 12.7599C31.449 12.9226 31.7036 13.0009 31.9594 12.9779H31.9554H32.4094L33.8404 9.64789H35.3604L37.0734 13.6479V9.64789H38.6144L40.3924 12.5959V9.64789H41.4324V13.8799H39.9884L38.0684 10.7019V13.8799L38.0704 13.8869ZM34.5714 10.3689L33.8744 12.0569H35.2714L34.5714 10.3689ZM24.7724 13.8849H23.7604V9.65089H26.0884C26.5133 9.60695 26.9422 9.67918 27.3294 9.85989L27.3144 9.85389C27.4697 9.94028 27.5992 10.0665 27.6896 10.2196C27.7799 10.3727 27.8278 10.5471 27.8284 10.7249L27.8264 10.7949V10.7919V10.8229C27.8264 11.0538 27.7599 11.2799 27.6346 11.474C27.5094 11.668 27.3308 11.8218 27.1204 11.9169L27.1124 11.9199C27.3134 11.9959 27.4824 12.1179 27.6114 12.2739L27.6134 12.2759C27.757 12.5101 27.816 12.7865 27.7804 13.0589L27.7814 13.0529V13.8839H26.7604L26.7564 13.3499V13.2699C26.7936 13.0088 26.7357 12.7429 26.5934 12.5209L26.5964 12.5259C26.4903 12.4483 26.37 12.3924 26.2424 12.3614C26.1147 12.3303 25.9822 12.3247 25.8524 12.3449L25.8584 12.3439H24.7734V13.8839L24.7724 13.8849ZM24.7724 10.5319V11.4719H26.0004C26.1739 11.4915 26.3493 11.4602 26.5054 11.3819L26.5004 11.3839C26.5642 11.3447 26.617 11.2899 26.6538 11.2246C26.6905 11.1594 26.71 11.0858 26.7104 11.0109L26.7094 10.9829C26.7145 10.9069 26.6972 10.8321 26.6597 10.7658C26.6222 10.6995 26.5661 10.6457 26.4984 10.6109L26.4964 10.6099C26.3445 10.5436 26.1785 10.5161 26.0134 10.5299H26.0164L24.7724 10.5319ZM14.0564 13.8849H12.0004L11.6114 12.9409H9.50337L9.11137 13.8849H8.01137L9.82437 9.65089H11.3274L13.0484 13.6579V9.65089H14.6994L16.0234 12.5219L17.2404 9.65089H18.9254V13.8829H17.8854L17.8834 10.5709L16.4164 13.8839H15.5284L14.0574 10.5659V13.8839L14.0564 13.8849ZM10.5524 10.3689L9.86337 12.0569H11.2454L10.5524 10.3689ZM29.4404 13.8839H28.4084V9.65089H29.4414V13.8829L29.4404 13.8839ZM23.0544 13.8839H19.6804V9.65089H23.0604V10.5309H20.6924V11.2939H23.0034V12.1629H20.6904V13.0089H23.0584V13.8829L23.0544 13.8839Z" fill="#59A1FF"/>
</g>
<defs>
<clipPath id="clip0_1052_4902">
<rect width="36" height="24" fill="white" transform="translate(8.00037 3.21094)"/>
</clipPath>
</defs>
</svg>
