<svg width="51" height="31" viewBox="0 0 51 31" fill="none" xmlns="http://www.w3.org/2000/svg">
<rect width="50.3564" height="30.2139" transform="translate(0.268433 0.211182)" fill="#2A2A2A"/>
<path d="M32.7408 8.73471L25.1408 5.92671C25.0528 5.89471 24.9528 5.89471 24.8648 5.92671L17.2648 8.73471C17.1088 8.79471 17.0048 8.94271 17.0048 9.11071V15.4027C17.0048 19.7467 19.4928 22.7467 24.3968 24.3147L24.8848 24.4707C24.9248 24.4827 24.9648 24.4907 25.0048 24.4907C25.0448 24.4907 25.0888 24.4827 25.1248 24.4707L25.6128 24.3147C30.5168 22.7467 33.0048 19.7467 33.0048 15.4027V9.11071C33.0048 8.94271 32.9008 8.79471 32.7448 8.73471H32.7408Z" fill="#F1F2F2"/>
<path d="M30.7409 10.127L25.1409 8.03501C25.0503 8.00298 24.9514 8.00298 24.8609 8.03501L19.2609 10.127C19.1049 10.187 19.0009 10.335 19.0009 10.503V15.391C19.0009 18.819 20.9249 21.111 24.8769 22.391C24.9169 22.403 24.9569 22.411 25.0009 22.411C25.0449 22.411 25.0849 22.403 25.1249 22.391C29.0809 21.111 31.0009 18.819 31.0009 15.391V10.503C31.0009 10.335 30.8969 10.187 30.7409 10.127Z" fill="#2DDE28"/>
<path d="M32.7407 7.87077C32.6367 7.87077 32.5367 7.83077 32.4567 7.75477C32.4196 7.71777 32.3902 7.67381 32.3701 7.62542C32.3501 7.57703 32.3397 7.52516 32.3397 7.47277C32.3397 7.42038 32.3501 7.36851 32.3701 7.32012C32.3902 7.27173 32.4196 7.22778 32.4567 7.19077L34.2687 5.37877C34.3057 5.34174 34.3497 5.31236 34.3981 5.29232C34.4465 5.27228 34.4983 5.26196 34.5507 5.26196C34.6031 5.26196 34.6549 5.27228 34.7033 5.29232C34.7517 5.31236 34.7957 5.34174 34.8327 5.37877C34.8697 5.4158 34.8991 5.45977 34.9192 5.50815C34.9392 5.55654 34.9495 5.6084 34.9495 5.66077C34.9495 5.71314 34.9392 5.765 34.9192 5.81339C34.8991 5.86177 34.8697 5.90574 34.8327 5.94277L33.0207 7.75477C32.9407 7.83477 32.8407 7.87077 32.7367 7.87077H32.7407ZM15.4487 25.1628C15.3447 25.1628 15.2447 25.1228 15.1647 25.0468C15.1276 25.0098 15.0982 24.9658 15.0781 24.9174C15.0581 24.869 15.0477 24.8172 15.0477 24.7648C15.0477 24.7124 15.0581 24.6605 15.0781 24.6121C15.0982 24.5637 15.1276 24.5198 15.1647 24.4828L17.9487 21.6988C17.9857 21.6617 18.0297 21.6324 18.0781 21.6123C18.1265 21.5923 18.1783 21.582 18.2307 21.582C18.2831 21.582 18.3349 21.5923 18.3833 21.6123C18.4317 21.6324 18.4757 21.6617 18.5127 21.6988C18.5497 21.7358 18.5791 21.7798 18.5992 21.8282C18.6192 21.8765 18.6295 21.9284 18.6295 21.9808C18.6295 22.0331 18.6192 22.085 18.5992 22.1334C18.5791 22.1818 18.5497 22.2257 18.5127 22.2628L15.7287 25.0468C15.6487 25.1268 15.5487 25.1628 15.4447 25.1628H15.4487ZM34.5527 25.1628C34.4487 25.1628 34.3487 25.1228 34.2687 25.0468L31.4847 22.2628C31.4477 22.2257 31.4183 22.1818 31.3983 22.1334C31.3782 22.085 31.3679 22.0331 31.3679 21.9808C31.3679 21.9284 31.3782 21.8765 31.3983 21.8282C31.4183 21.7798 31.4477 21.7358 31.4847 21.6988C31.5217 21.6617 31.5657 21.6324 31.6141 21.6123C31.6625 21.5923 31.7143 21.582 31.7667 21.582C31.8191 21.582 31.8709 21.5923 31.9193 21.6123C31.9677 21.6324 32.0117 21.6617 32.0487 21.6988L34.8327 24.4828C34.8885 24.5386 34.9265 24.6098 34.9418 24.6873C34.957 24.7648 34.9489 24.845 34.9185 24.9179C34.8881 24.9908 34.8367 25.053 34.7708 25.0966C34.705 25.1402 34.6277 25.1632 34.5487 25.1628H34.5527ZM17.2607 7.87077C17.1567 7.87077 17.0567 7.83077 16.9767 7.75477L15.1647 5.94277C15.1277 5.90574 15.0983 5.86177 15.0783 5.81339C15.0582 5.765 15.0479 5.71314 15.0479 5.66077C15.0479 5.6084 15.0582 5.55654 15.0783 5.50815C15.0983 5.45977 15.1277 5.4158 15.1647 5.37877C15.2017 5.34174 15.2457 5.31236 15.2941 5.29232C15.3425 5.27228 15.3943 5.26196 15.4467 5.26196C15.4991 5.26196 15.5509 5.27228 15.5993 5.29232C15.6477 5.31236 15.6917 5.34174 15.7287 5.37877L17.5407 7.19077C17.5965 7.24663 17.6345 7.31782 17.6498 7.3953C17.665 7.47278 17.6569 7.55305 17.6265 7.62592C17.5961 7.69878 17.5447 7.76097 17.4788 7.80456C17.413 7.84816 17.3357 7.8712 17.2567 7.87077H17.2607Z" fill="white"/>
<path d="M27.3997 13.6108H26.9997V12.8108C26.9997 11.7068 26.1037 10.8108 24.9997 10.8108C23.8957 10.8108 22.9997 11.7068 22.9997 12.8108V13.6108H22.5997C22.1597 13.6108 21.7997 13.9708 21.7997 14.4108V17.6108C21.7997 18.0508 22.1597 18.4108 22.5997 18.4108H27.3997C27.8397 18.4108 28.1997 18.0508 28.1997 17.6108V14.4108C28.1997 13.9708 27.8397 13.6108 27.3997 13.6108ZM23.7997 12.8108C23.7997 12.1508 24.3397 11.6108 24.9997 11.6108C25.6597 11.6108 26.1997 12.1508 26.1997 12.8108V13.6108H23.7997V12.8108Z" fill="white"/>
<path d="M25.0005 16.8112C24.7805 16.8112 24.6005 16.6312 24.6005 16.4112V15.6112C24.6005 15.3912 24.7805 15.2112 25.0005 15.2112C25.2205 15.2112 25.4005 15.3912 25.4005 15.6112V16.4112C25.4005 16.6312 25.2205 16.8112 25.0005 16.8112Z" fill="#151515"/>
</svg>
