<svg width="23" height="25" viewBox="0 0 23 25" fill="none" xmlns="http://www.w3.org/2000/svg">
<g clip-path="url(#clip0_1052_4405)">
<path d="M19.4088 8.14512H18.412C18.3381 8.14512 18.2717 8.11634 18.2126 8.05878C18.1535 8.00123 18.124 7.93648 18.124 7.86453V2.77086C18.124 2.69892 18.1535 2.63417 18.2126 2.57661C18.2717 2.51906 18.3381 2.49028 18.412 2.49028H19.4088C19.586 2.49028 19.7374 2.55143 19.8629 2.67374C19.9885 2.79605 20.0512 2.94353 20.0512 3.1162V7.5192C20.0512 7.69187 19.9885 7.83935 19.8629 7.96166C19.7374 8.08397 19.586 8.14512 19.4088 8.14512ZM18.6999 7.60553H19.4088C19.4679 7.60553 19.4974 7.57676 19.4974 7.5192V3.1162C19.4827 3.07303 19.4531 3.05145 19.4088 3.05145H18.6999V7.60553ZM20.7601 7.30337H19.7854C19.7116 7.30337 19.6451 7.27459 19.586 7.21703C19.527 7.15948 19.4974 7.09473 19.4974 7.02278C19.4974 6.95084 19.527 6.88609 19.586 6.82853C19.6451 6.77098 19.7116 6.7422 19.7854 6.7422H20.7601C20.8192 6.7422 20.8487 6.71342 20.8487 6.65587V4.00112C20.8635 3.97234 20.8598 3.94716 20.8376 3.92557C20.8155 3.90399 20.7896 3.8932 20.7601 3.8932H19.7854C19.6525 3.93637 19.5454 3.90039 19.4642 3.78528C19.383 3.67017 19.383 3.55866 19.4642 3.45074C19.5454 3.34282 19.6525 3.31045 19.7854 3.35361H20.7601C20.9373 3.35361 21.0924 3.41837 21.2253 3.54786C21.3582 3.67737 21.4247 3.82845 21.4247 4.00112V6.65587C21.4247 6.82853 21.3582 6.97962 21.2253 7.10912C21.0924 7.23862 20.9373 7.30337 20.7601 7.30337ZM18.412 5.59828H5.65218C5.57834 5.59828 5.51188 5.56951 5.45281 5.51195C5.39374 5.45439 5.3642 5.38964 5.3642 5.3177C5.3642 5.24576 5.39374 5.18101 5.45281 5.12345C5.51188 5.06589 5.57834 5.03712 5.65218 5.03712H18.412C18.4858 5.03712 18.5523 5.06589 18.6113 5.12345C18.6704 5.18101 18.6999 5.24576 18.6999 5.3177C18.6999 5.38964 18.6704 5.45439 18.6113 5.51195C18.5523 5.56951 18.4858 5.59828 18.412 5.59828ZM22.776 5.59828H21.1367C21.0629 5.59828 20.9964 5.56951 20.9373 5.51195C20.8783 5.45439 20.8487 5.38964 20.8487 5.3177C20.8487 5.24576 20.8783 5.18101 20.9373 5.12345C20.9964 5.06589 21.0629 5.03712 21.1367 5.03712H22.776C22.8498 5.03712 22.9163 5.06589 22.9753 5.12345C23.0344 5.18101 23.064 5.24576 23.064 5.3177C23.064 5.38964 23.0344 5.45439 22.9753 5.51195C22.9163 5.56951 22.8498 5.59828 22.776 5.59828ZM5.65218 8.14512H4.63317C4.45595 8.14512 4.30458 8.08397 4.17905 7.96166C4.05352 7.83935 3.99075 7.69187 3.99075 7.5192V3.1162C3.99075 2.94353 4.05352 2.79605 4.17905 2.67374C4.30458 2.55143 4.45595 2.49028 4.63317 2.49028H5.65218C5.72602 2.49028 5.78879 2.51906 5.84048 2.57661C5.89217 2.63417 5.91801 2.69892 5.91801 2.77086V7.86453C5.91801 7.93648 5.89217 8.00123 5.84048 8.05878C5.78879 8.11634 5.72602 8.14512 5.65218 8.14512ZM4.63317 3.05145C4.60363 3.06584 4.58148 3.08742 4.56671 3.1162V7.5192C4.56671 7.56237 4.58887 7.59115 4.63317 7.60553H5.3642V3.05145H4.63317ZM4.27873 7.30337H3.30403C3.12681 7.30337 2.97174 7.23862 2.83883 7.10912C2.70591 6.97962 2.63946 6.82853 2.63946 6.65587V4.00112C2.63946 3.82845 2.70591 3.67737 2.83883 3.54786C2.97174 3.41837 3.12681 3.35361 3.30403 3.35361H4.27873C4.41165 3.31045 4.51872 3.34282 4.59994 3.45074C4.68117 3.55866 4.68117 3.67017 4.59994 3.78528C4.51872 3.90039 4.41165 3.93637 4.27873 3.8932H3.30403C3.27449 3.87881 3.24496 3.886 3.21542 3.91478C3.18588 3.94356 3.1785 3.97234 3.19327 4.00112V6.65587C3.19327 6.68464 3.20434 6.70983 3.22649 6.73141C3.24865 6.75299 3.27449 6.75659 3.30403 6.7422H4.27873C4.35257 6.7422 4.41903 6.77098 4.4781 6.82853C4.53718 6.88609 4.56671 6.95084 4.56671 7.02278C4.56671 7.09473 4.53718 7.15948 4.4781 7.21703C4.41903 7.27459 4.35257 7.30337 4.27873 7.30337ZM2.90529 5.59828H1.26601C1.19217 5.59828 1.12571 5.56951 1.06664 5.51195C1.00756 5.45439 0.978027 5.38964 0.978027 5.3177C0.978027 5.24576 1.00756 5.18101 1.06664 5.12345C1.12571 5.06589 1.19217 5.03712 1.26601 5.03712H2.90529C2.97913 5.03712 3.04558 5.06589 3.10466 5.12345C3.16373 5.18101 3.19327 5.24576 3.19327 5.3177C3.19327 5.38964 3.16373 5.45439 3.10466 5.51195C3.04558 5.56951 2.97913 5.59828 2.90529 5.59828ZM14.5131 16.3036H9.70607C9.63223 16.3036 9.56577 16.2748 9.5067 16.2173C9.44762 16.1597 9.41809 16.095 9.41809 16.023L9.90544 9.09479C9.90544 9.02284 9.93498 8.96169 9.99405 8.91133C10.0531 8.86097 10.1196 8.83578 10.1934 8.83578H13.8486C13.9224 8.83578 13.9852 8.85737 14.0369 8.90054C14.0885 8.9437 14.1218 9.00126 14.1365 9.0732L14.8011 16.0015C14.8011 16.0878 14.7753 16.1597 14.7236 16.2173C14.6719 16.2748 14.6017 16.3036 14.5131 16.3036ZM10.0162 15.764H14.203L13.6049 9.37537H10.4592L10.0162 15.764ZM15.4657 22.9513H8.75352C8.66491 22.9513 8.59476 22.9153 8.54307 22.8434C8.49138 22.7714 8.47292 22.6923 8.48769 22.606L9.17441 20.167C9.21872 20.0375 9.30733 19.9728 9.44024 19.9728H11.3232C11.397 19.9728 11.4635 20.0016 11.5226 20.0591C11.5816 20.1167 11.6112 20.1814 11.6112 20.2534C11.6112 20.3253 11.5816 20.3901 11.5226 20.4476C11.4635 20.5052 11.397 20.534 11.3232 20.534H9.66176L9.13011 22.4117H15.0448L14.3359 20.534H12.896C12.8222 20.534 12.7557 20.5052 12.6966 20.4476C12.6376 20.3901 12.608 20.3253 12.608 20.2534C12.608 20.1814 12.6376 20.1167 12.6966 20.0591C12.7557 20.0016 12.8222 19.9728 12.896 19.9728H14.5353C14.6682 19.9728 14.7568 20.0303 14.8011 20.1455L15.7315 22.5844C15.7611 22.6707 15.75 22.7534 15.6983 22.8326C15.6466 22.9117 15.5691 22.9513 15.4657 22.9513ZM16.8391 10.9941H14.0036C13.9298 10.9941 13.8633 10.9653 13.8043 10.9078C13.7452 10.8502 13.7157 10.7855 13.7157 10.7135C13.7157 10.6416 13.7452 10.5768 13.8043 10.5193C13.8633 10.4617 13.9298 10.433 14.0036 10.433H16.5512V5.3177C16.5512 5.24576 16.5807 5.18101 16.6398 5.12345C16.6988 5.06589 16.7653 5.03712 16.8391 5.03712H17.6366C17.7105 5.03712 17.7769 5.06589 17.836 5.12345C17.8951 5.18101 17.9246 5.24576 17.9246 5.3177C17.9246 5.38964 17.8951 5.45439 17.836 5.51195C17.7769 5.56951 17.7105 5.59828 17.6366 5.59828H17.1271V10.7135C17.1271 10.7855 17.0976 10.8502 17.0385 10.9078C16.9794 10.9653 16.913 10.9941 16.8391 10.9941ZM18.2126 17.9008H17.0607C16.9277 17.9008 16.8096 17.854 16.7062 17.7605C16.6028 17.667 16.5512 17.5555 16.5512 17.426V12.505H14.1587C14.0996 12.4906 14.0516 12.4582 14.0147 12.4078C13.9778 12.3575 13.9593 12.2999 13.9593 12.2352C13.9593 12.1704 13.9778 12.1129 14.0147 12.0625C14.0516 12.0121 14.0996 11.9798 14.1587 11.9654H16.8391C16.913 11.9654 16.9794 11.9906 17.0385 12.0409C17.0976 12.0913 17.1271 12.1524 17.1271 12.2244V17.3396H18.124V8.77104C18.124 8.69909 18.1535 8.63434 18.2126 8.57679C18.2717 8.51923 18.3381 8.49045 18.412 8.49045C18.4858 8.49045 18.5523 8.51923 18.6113 8.57679C18.6704 8.63434 18.6999 8.69909 18.6999 8.77104V17.426C18.6999 17.5555 18.6519 17.667 18.5559 17.7605C18.46 17.854 18.3455 17.9008 18.2126 17.9008ZM7.00348 17.9008H5.85155C5.71864 17.9008 5.60418 17.854 5.50819 17.7605C5.4122 17.667 5.3642 17.5555 5.3642 17.426V8.70629C5.37897 8.64873 5.4122 8.60197 5.46389 8.56599C5.51557 8.53002 5.57465 8.51204 5.64111 8.51204C5.70756 8.51204 5.76664 8.53002 5.81832 8.56599C5.87001 8.60197 5.90324 8.64873 5.91801 8.70629V17.3396H6.91487V12.2244C6.91487 12.1524 6.9444 12.0877 7.00348 12.0301C7.06255 11.9726 7.12901 11.9438 7.20285 11.9438H9.9719C10.0457 11.9438 10.1122 11.9726 10.1713 12.0301C10.2303 12.0877 10.2599 12.1524 10.2599 12.2244C10.2599 12.2963 10.2303 12.3611 10.1713 12.4186C10.1122 12.4762 10.0457 12.505 9.9719 12.505H7.49083V17.426C7.49083 17.5555 7.44283 17.667 7.34684 17.7605C7.25085 17.854 7.13639 17.9008 7.00348 17.9008ZM10.0827 10.9941H7.20285C7.12901 10.9941 7.06255 10.9653 7.00348 10.9078C6.9444 10.8502 6.91487 10.7855 6.91487 10.7135V5.59828H6.31675C6.24291 5.59828 6.17645 5.56951 6.11738 5.51195C6.05831 5.45439 6.02877 5.38964 6.02877 5.3177C6.02877 5.24576 6.05831 5.18101 6.11738 5.12345C6.17645 5.06589 6.24291 5.03712 6.31675 5.03712H7.20285C7.27669 5.03712 7.34315 5.06589 7.40222 5.12345C7.46129 5.18101 7.49083 5.24576 7.49083 5.3177V10.433H10.0827C10.1565 10.433 10.223 10.4617 10.282 10.5193C10.3411 10.5768 10.3706 10.6416 10.3706 10.7135C10.3706 10.7855 10.3411 10.8502 10.282 10.9078C10.223 10.9653 10.1565 10.9941 10.0827 10.9941ZM12.896 21.7426C12.8222 21.7426 12.7557 21.7138 12.6966 21.6563C12.6376 21.5987 12.608 21.534 12.608 21.462V17.318C12.608 17.2461 12.6376 17.1813 12.6966 17.1238C12.7557 17.0662 12.8222 17.0375 12.896 17.0375C12.9699 17.0375 13.0363 17.0662 13.0954 17.1238C13.1545 17.1813 13.184 17.2461 13.184 17.318V21.462C13.184 21.534 13.1545 21.5987 13.0954 21.6563C13.0363 21.7138 12.9699 21.7426 12.896 21.7426ZM11.3232 21.7426C11.2494 21.7426 11.1829 21.7138 11.1238 21.6563C11.0647 21.5987 11.0352 21.534 11.0352 21.462V17.318C11.0352 17.2461 11.0647 17.1813 11.1238 17.1238C11.1829 17.0662 11.2494 17.0375 11.3232 17.0375C11.397 17.0375 11.4635 17.0662 11.5226 17.1238C11.5816 17.1813 11.6112 17.2461 11.6112 17.318V21.462C11.6112 21.534 11.5816 21.5987 11.5226 21.6563C11.4635 21.7138 11.397 21.7426 11.3232 21.7426ZM13.9372 17.5986H10.282C10.0457 17.5986 9.84268 17.5159 9.67284 17.3504C9.50301 17.1849 9.41809 16.9871 9.41809 16.7569V16.0446C9.37378 15.9151 9.4107 15.8108 9.52885 15.7317C9.647 15.6525 9.76145 15.6525 9.87221 15.7317C9.98297 15.8108 10.0162 15.9151 9.9719 16.0446V16.7569C9.9719 16.8432 10.0014 16.9116 10.0605 16.9619C10.1196 17.0123 10.1934 17.0375 10.282 17.0375H13.9372C14.011 17.0375 14.0775 17.0087 14.1365 16.9511C14.1956 16.8936 14.2252 16.8288 14.2252 16.7569V16.0446C14.2252 15.9727 14.2547 15.9079 14.3138 15.8504C14.3728 15.7928 14.4393 15.764 14.5131 15.764C14.587 15.764 14.6534 15.7928 14.7125 15.8504C14.7716 15.9079 14.8011 15.9727 14.8011 16.0446V16.7569C14.8011 16.9871 14.7162 17.1849 14.5464 17.3504C14.3765 17.5159 14.1735 17.5986 13.9372 17.5986Z" fill="#2DDE28"/>
</g>
<defs>
<clipPath id="clip0_1052_4405">
<rect width="21.8679" height="24.0476" fill="white" transform="matrix(1 0 0 -1 0.911621 24.6531)"/>
</clipPath>
</defs>
</svg>
