<svg width="25" height="24" viewBox="0 0 25 24" fill="none" xmlns="http://www.w3.org/2000/svg">
<path d="M4.86865 13.9145C5.87243 13.9145 7.27278 13.6159 8.15195 14.2607L9.89447 15.5364C10.5422 16.0111 11.2434 15.8548 11.9663 15.7421C12.9177 15.5928 13.7692 16.4047 13.7692 17.4609C13.7692 17.7497 11.7191 18.4844 11.4234 18.6239C11.1387 18.7585 10.8226 18.8129 10.5093 18.7812C10.196 18.7495 9.89722 18.6328 9.64526 18.4439L7.67924 17.003" stroke="#2DDE28" stroke-width="0.956907" stroke-linecap="round" stroke-linejoin="round"/>
<path d="M13.7692 16.8122L17.8149 14.9431C18.1717 14.8198 18.5566 14.8023 18.9231 14.8927C19.2896 14.983 19.6222 15.1774 19.8809 15.4524L20.5434 16.1457C20.7808 16.3929 20.7254 16.8102 20.4317 16.9803L12.6645 21.4909C12.4351 21.6254 12.1804 21.7112 11.9163 21.743C11.6523 21.7748 11.3845 21.752 11.1297 21.6758L4.86865 19.8058M12.7822 11.8675C12.7822 11.8675 14.859 9.65324 14.859 6.92276C14.859 4.19228 12.7822 1.97803 12.7822 1.97803C12.7822 1.97803 10.7054 4.19228 10.7054 6.92276C10.7054 9.65324 12.7822 11.8675 12.7822 11.8675ZM12.7822 11.8675C12.7822 11.8675 15.8153 11.8002 17.7269 9.85004C19.6386 7.89885 19.7048 4.80345 19.7048 4.80345C19.7048 4.80345 18.4489 4.83114 17.0446 5.3711M12.7822 11.8675C12.7822 11.8675 9.7491 11.8002 7.83747 9.85004C5.92584 7.89885 5.85958 4.80345 5.85958 4.80345C5.85958 4.80345 7.11554 4.83114 8.51984 5.3711" stroke="#2DDE28" stroke-width="0.956907" stroke-linecap="round" stroke-linejoin="round"/>
</svg>
