<svg width="20" height="25" viewBox="0 0 20 25" fill="none" xmlns="http://www.w3.org/2000/svg">
<mask id="mask0_1052_4410" style="mask-type:luminance" maskUnits="userSpaceOnUse" x="0" y="18" width="20" height="7">
<path d="M0.466309 18.0298H19.4541V24.2987H0.466309V18.0298Z" fill="white"/>
</mask>
<g mask="url(#mask0_1052_4410)">
<path d="M9.961 24.2856C7.51425 24.2856 5.20686 24.0041 3.46436 23.4931C1.50295 22.918 0.466309 22.104 0.466309 21.1396C0.466309 19.2145 4.5398 18.2738 8.02772 18.0528C8.30774 18.0343 8.54895 18.2491 8.56641 18.531C8.5842 18.8125 8.37144 19.0553 8.09142 19.0732C6.16041 19.1953 4.41208 19.5084 3.16882 19.9546C1.92362 20.4015 1.48161 20.8721 1.48161 21.1396C1.48161 21.4023 1.95919 21.9868 3.74826 22.5115C5.40119 22.9961 7.6077 23.2633 9.961 23.2633C12.3153 23.2633 14.5218 22.9961 16.1744 22.5115C17.9631 21.9868 18.4407 21.4023 18.4407 21.1396C18.4407 20.4516 16.0363 19.317 11.6893 19.0651C11.4093 19.0488 11.1955 18.8073 11.2117 18.5254C11.2275 18.2436 11.4681 18.0275 11.7475 18.0444C15.3036 18.2504 19.456 19.1845 19.456 21.1396C19.456 22.104 18.4194 22.918 16.4586 23.4931C14.7161 24.0041 12.4084 24.2856 9.961 24.2856Z" fill="#2DDE28"/>
</g>
<mask id="mask1_1052_4410" style="mask-type:luminance" maskUnits="userSpaceOnUse" x="2" y="0" width="16" height="23">
<path d="M2.27881 0.564575H17.5096V22.1131H2.27881V0.564575Z" fill="white"/>
</mask>
<g mask="url(#mask1_1052_4410)">
<path d="M9.87739 22.0918C9.69277 22.0918 9.52269 21.9909 9.43344 21.8285C8.97429 20.9953 8.26843 19.8649 7.45102 18.5559C5.16756 14.8985 2.32568 10.3468 2.32568 8.17688C2.32568 3.98448 5.71336 0.573853 9.87739 0.573853C14.0405 0.573853 17.4275 3.98448 17.4275 8.17688C17.4275 10.4555 14.7518 14.6948 12.3911 18.4351C11.5782 19.723 10.8106 20.9393 10.3213 21.8285C10.2318 21.9909 10.062 22.0918 9.87739 22.0918ZM9.87739 1.59616C6.27307 1.59616 3.34099 4.54819 3.34099 8.17688C3.34099 10.0523 6.21358 14.6528 8.31079 18.0117C8.90801 18.9686 9.44638 19.8307 9.87739 20.5592C10.3437 19.7731 10.9263 18.8498 11.5342 17.8867C13.5926 14.6251 16.4122 10.158 16.4122 8.17688C16.4122 4.54819 13.4804 1.59616 9.87739 1.59616Z" fill="#2DDE28"/>
</g>
<path d="M9.87985 11.5872C7.86412 11.5872 6.22412 9.93677 6.22412 7.9081C6.22412 5.87846 7.86412 4.22766 9.87985 4.22766C11.8946 4.22766 13.534 5.87846 13.534 7.9081C13.534 9.93677 11.8946 11.5872 9.87985 11.5872ZM9.87985 5.24964C8.42383 5.24964 7.23942 6.44217 7.23942 7.9081C7.23942 9.37305 8.42383 10.5649 9.87985 10.5649C11.3349 10.5649 12.5187 9.37305 12.5187 7.9081C12.5187 6.44217 11.3349 5.24964 9.87985 5.24964Z" fill="#2DDE28"/>
</svg>
