<svg width="23" height="25" viewBox="0 0 23 25" fill="none" xmlns="http://www.w3.org/2000/svg">
<g clip-path="url(#clip0_1052_4401)">
<path d="M16.2863 18.9561C16.2125 18.9561 16.146 18.9345 16.0869 18.8914C15.7177 18.6036 15.415 18.2618 15.1787 17.8661C14.9424 17.4704 14.7799 17.0496 14.6913 16.6035C14.6175 16.2006 14.6027 15.7977 14.647 15.3949V7.34426C14.647 7.25793 14.6766 7.18599 14.7356 7.12843C14.7947 7.07088 14.8686 7.0421 14.9572 7.0421C15.0458 7.0421 15.1196 7.07088 15.1787 7.12843C15.2378 7.18599 15.2673 7.25793 15.2673 7.34426V15.4596C15.223 15.8193 15.2378 16.179 15.3116 16.5388C15.3854 16.8985 15.522 17.2402 15.7214 17.564C15.9208 17.8877 16.1755 18.1647 16.4857 18.3949C16.5448 18.4381 16.5891 18.4921 16.6186 18.5568C16.6481 18.6216 16.6518 18.6863 16.6297 18.7511C16.6075 18.8158 16.5632 18.8698 16.4968 18.9129C16.4303 18.9561 16.3601 18.9705 16.2863 18.9561ZM14.9572 15.0711C14.8243 15.0711 14.7283 15.0135 14.6692 14.8984C14.1671 13.7761 13.1924 13.0423 11.7451 12.6969C11.0657 12.5387 10.379 12.4739 9.6849 12.5027C9.55198 12.5171 9.45599 12.4667 9.39691 12.3516C8.73234 11.3444 7.95701 10.5026 7.07091 9.82635C6.40634 9.32274 5.70854 8.93783 4.97751 8.67164C4.24648 8.40545 3.497 8.27954 2.72905 8.29393H1.71004C1.62143 8.29393 1.54758 8.26515 1.48851 8.2076C1.42944 8.15004 1.3999 8.0781 1.3999 7.99176C1.3999 7.90543 1.42944 7.83349 1.48851 7.77593C1.54758 7.71838 1.62143 7.6896 1.71004 7.6896H2.70689C3.54868 7.67521 4.36832 7.8119 5.16581 8.09968C6.02237 8.40185 6.80509 8.83352 7.51396 9.39468C8.41483 10.0997 9.18278 10.9271 9.81781 11.8768C10.5267 11.8624 11.2171 11.9343 11.8891 12.0926C12.561 12.2509 13.185 12.5171 13.7609 12.8912C14.4255 13.3372 14.9202 13.92 15.2451 14.6394C15.2894 14.7402 15.2821 14.8373 15.223 14.9308C15.1639 15.0243 15.0753 15.0711 14.9572 15.0711ZM5.03289 23.1433C4.94428 23.1433 4.86675 23.1145 4.80029 23.0569C4.73384 22.9994 4.70061 22.9274 4.70061 22.8411C4.70061 21.8627 4.87783 20.9993 5.23227 20.2511C5.40948 19.8626 5.59409 19.5748 5.78608 19.3878L6.25128 19.8194C6.05929 20.0353 5.90422 20.2727 5.78608 20.5317C5.47594 21.2655 5.32826 22.0353 5.34303 22.8411C5.34303 22.9274 5.31349 22.9994 5.25442 23.0569C5.19534 23.1145 5.1215 23.1433 5.03289 23.1433ZM10.3495 19.1288C10.2756 19.1288 10.1944 19.1288 10.1058 19.1288C9.27877 19.0856 8.50344 18.8626 7.77979 18.4597L6.84939 17.9417C6.77555 17.8985 6.72755 17.8338 6.7054 17.7474C6.68325 17.6611 6.69432 17.582 6.73863 17.51C6.78293 17.4381 6.84939 17.3913 6.938 17.3697C7.02661 17.3481 7.10783 17.3589 7.18168 17.4021L8.08992 17.9201C8.72496 18.2798 9.40799 18.4741 10.139 18.5029C10.87 18.5316 11.5605 18.3877 12.2103 18.0712C12.6681 17.8697 13.0521 17.5748 13.3622 17.1863L13.916 17.51C13.5468 18.0136 13.0742 18.3877 12.4982 18.6324C11.8189 18.9633 11.1026 19.1288 10.3495 19.1288ZM14.2926 7.66801H13.2957C13.2367 7.66801 13.1776 7.64643 13.1185 7.60326L12.1438 6.95576C12.0109 6.9126 11.9444 6.82267 11.9444 6.68597C11.9444 6.54928 12.0072 6.45215 12.1327 6.3946C12.2583 6.33704 12.3727 6.35863 12.4761 6.45935L13.4065 7.0421H14.2926C14.455 7.0421 14.6027 7.00612 14.7356 6.93418C14.8686 6.86224 14.9793 6.76151 15.0679 6.63201L15.3559 6.20035C15.4002 6.1284 15.4667 6.08524 15.5553 6.07085C15.6439 6.05646 15.7251 6.07085 15.799 6.11401C15.8728 6.15718 15.9171 6.22193 15.9319 6.30826C15.9466 6.3946 15.9319 6.47374 15.8876 6.54568L15.5996 6.97735C15.4519 7.19318 15.2636 7.36225 15.0347 7.48456C14.8058 7.60686 14.5584 7.66801 14.2926 7.66801ZM1.71004 22.4958V21.8914C2.15308 21.8483 2.52229 21.6612 2.81766 21.3303C2.98011 21.172 3.14256 20.8986 3.30501 20.5101C3.40839 20.2655 3.5413 19.8626 3.70375 19.3014C3.98435 18.4093 4.23541 17.7043 4.45693 17.1863C4.81137 16.3229 5.24703 15.5603 5.76392 14.8984C5.823 14.8265 5.89684 14.7869 5.98545 14.7797C6.07406 14.7725 6.15159 14.7941 6.21805 14.8445C6.2845 14.8948 6.32512 14.9632 6.33988 15.0495C6.35465 15.1359 6.3325 15.215 6.27343 15.2869C5.80084 15.9057 5.38733 16.6251 5.03289 17.4453C4.82614 17.9345 4.58985 18.6108 4.32402 19.4741L4.27971 19.6252C4.08773 20.2151 3.94004 20.6324 3.83667 20.877C3.65945 21.2655 3.46746 21.5605 3.2607 21.7619C2.84719 22.208 2.3303 22.4526 1.71004 22.4958ZM17.2832 23.1433C15.319 23.1577 13.377 22.9706 11.4571 22.5821C8.81357 22.0209 6.92323 21.1 5.78608 19.8194L5.76392 19.7979C5.23227 19.0784 4.98859 18.2726 5.03289 17.3805C5.03289 16.4884 5.27657 15.6682 5.76392 14.92C6.13313 14.3732 6.59833 13.9128 7.15952 13.5387C7.2629 13.4667 7.36997 13.4595 7.48073 13.5171C7.5915 13.5747 7.65057 13.661 7.65795 13.7761C7.66534 13.8912 7.61734 13.9847 7.51396 14.0567C7.01184 14.3732 6.59833 14.7761 6.27343 15.2654C6.02237 15.6251 5.84515 16.0639 5.74177 16.5819C5.63839 17.0999 5.63101 17.6035 5.71962 18.0928C5.80823 18.6252 5.99283 19.064 6.27343 19.4094C7.29244 20.5749 9.06463 21.431 11.59 21.9778C13.4656 22.3519 15.3633 22.5317 17.2832 22.5174C18.9224 22.503 20.4731 22.1217 21.9352 21.3734V19.6036C21.9056 18.3086 21.6841 17.0496 21.2706 15.8265C20.8571 14.5459 20.0965 12.4235 18.9889 9.45943L17.9699 6.80468C17.6598 5.97013 17.0986 5.25787 16.2863 4.66793C15.6513 4.20749 14.8833 3.83337 13.9825 3.5456C13.4065 3.37293 12.8305 3.24343 12.2546 3.15709C12.1217 3.14271 11.9961 3.16069 11.878 3.21105C11.7598 3.26142 11.6638 3.34415 11.59 3.45926L9.70705 6.37301L10.8147 7.6896H12.5647L12.4539 7.27951C12.4392 7.20757 12.3986 7.14642 12.3321 7.09606C12.2656 7.04569 12.1955 7.02051 12.1217 7.02051H11.3242C11.2356 7.02051 11.1617 6.99174 11.1026 6.93418C11.0436 6.87663 11.014 6.80108 11.014 6.70756C11.014 6.61403 11.0436 6.53849 11.1026 6.48093C11.1617 6.42337 11.2356 6.3946 11.3242 6.3946H12.1217C12.3432 6.3946 12.5462 6.46294 12.7308 6.59964C12.9155 6.73633 13.0299 6.9126 13.0742 7.12843L13.2736 7.92701C13.3031 8.02774 13.2847 8.11767 13.2182 8.19681C13.1517 8.27594 13.0668 8.31551 12.9634 8.31551H10.6596C10.5562 8.31551 10.475 8.27235 10.4159 8.18601L9.08678 6.56726C8.99817 6.45215 8.99079 6.33704 9.06463 6.22193L11.0362 3.11393C11.1839 2.89809 11.3759 2.73982 11.6122 2.6391C11.8484 2.53837 12.0921 2.50959 12.3432 2.55276C12.9782 2.6391 13.6059 2.79018 14.2261 3.00601C15.1861 3.30818 16.0131 3.71107 16.7072 4.21468C17.5933 4.87657 18.2136 5.67515 18.568 6.61043L19.587 9.28677C20.6946 12.2365 21.4626 14.3553 21.8909 15.6431C22.3191 16.9309 22.5407 18.251 22.5554 19.6036V21.5461C22.5554 21.6612 22.5037 21.7475 22.4004 21.8051C21.9278 22.0641 21.433 22.2871 20.9162 22.4742C19.7495 22.9059 18.5385 23.1289 17.2832 23.1433Z" fill="#2DDE28"/>
</g>
<defs>
<clipPath id="clip0_1052_4401">
<rect width="21.8679" height="24.0476" fill="white" transform="matrix(1 0 0 -1 0.911621 24.6938)"/>
</clipPath>
</defs>
</svg>
