<svg width="17" height="16" viewBox="0 0 17 16" fill="none" xmlns="http://www.w3.org/2000/svg">
<g clip-path="url(#clip0_1052_4721)">
<path d="M4.02681 10.1223V12.6406H4.79217V10.1223H4.02681ZM3.49123 14.0652C3.28118 13.695 2.9307 13.5023 2.53787 13.3898C2.27037 13.3137 1.99127 13.2998 1.71274 13.301C1.31933 13.3021 0.926495 13.301 0.533081 13.301V15.8477C1.04023 15.8437 1.54795 15.8379 2.05567 15.8315C2.30726 15.8283 2.55581 15.7761 2.78738 15.6777C3.12973 15.5315 3.41928 15.3284 3.55506 14.9611C3.66937 14.653 3.65022 14.346 3.49123 14.0652ZM2.28604 15.3093C2.11085 15.3778 1.92404 15.4117 1.73595 15.4091C1.59611 15.4079 1.45685 15.4091 1.31353 15.4091V13.6671C1.62338 13.7275 1.94136 13.6596 2.2402 13.7739C2.49435 13.872 2.69396 14.0315 2.77519 14.3008C2.90343 14.7267 2.72993 15.1381 2.28604 15.3093ZM5.62077 15.4595C5.4229 15.4137 5.20995 15.2791 5.21865 15.0377H7.08766C7.10931 14.8252 7.06964 14.611 6.97335 14.4203C6.83467 14.14 6.58922 13.9932 6.30141 13.9126C6.09083 13.8532 5.87093 13.8341 5.65327 13.8563C5.28712 13.8894 4.95522 13.9868 4.68946 14.259C4.46896 14.4853 4.38947 14.7505 4.45446 15.0586C4.50726 15.3069 4.66045 15.4891 4.86528 15.6267C5.11595 15.7978 5.40027 15.8692 5.69853 15.8796C5.908 15.8872 6.11921 15.8831 6.32694 15.8617C6.50624 15.8437 6.68148 15.7938 6.8573 15.752C6.87703 15.7479 6.90256 15.7108 6.90372 15.6876C6.90836 15.5559 6.90546 15.4253 6.90546 15.2965C6.81784 15.3359 6.73602 15.3835 6.64841 15.4085C6.31012 15.5007 5.9666 15.5356 5.62077 15.4595ZM5.40201 14.3333C5.63876 14.2085 5.88537 14.1882 6.13372 14.2984C6.26428 14.3565 6.32288 14.4522 6.38207 14.6646H5.232C5.20821 14.5514 5.279 14.3971 5.40201 14.3333ZM15.6441 15.4862C15.5571 15.4427 15.4967 15.3766 15.5049 15.2617C15.513 15.1329 15.506 15.004 15.506 14.8741V14.3959H16.1234V13.9903H15.5037V13.511H14.7424V13.9961H14.161V14.3982H14.747V14.4998C14.747 14.8114 14.7447 15.1224 14.7482 15.434C14.7505 15.553 14.7946 15.6632 14.8788 15.7479C15.0024 15.8762 15.1608 15.9348 15.3319 15.9655L15.5066 15.9998H15.7933C15.8681 15.9882 15.9453 15.9835 16.0178 15.9638C16.0642 15.9516 16.1437 15.9794 16.1472 15.8947C16.1524 15.77 16.1489 15.6452 16.1489 15.5199C15.9702 15.557 15.8025 15.5669 15.6441 15.4862ZM13.7049 10.1322L13.7055 10.554H14.7331V12.6731H15.4561V10.5529H16.4669V10.1322H13.7049ZM3.56144 11.0525C3.45641 10.7467 3.22895 10.5366 2.94695 10.3852C2.61504 10.2071 2.2547 10.1357 1.88044 10.1322C1.4319 10.1276 0.981619 10.131 0.533081 10.131V12.6778C0.992644 12.6737 1.45163 12.6604 1.91119 12.6639C2.21013 12.6695 2.50726 12.6163 2.78564 12.5072C3.03921 12.4068 3.26145 12.2594 3.42334 12.036C3.64268 11.7337 3.67981 11.3972 3.56144 11.0525ZM2.54077 11.9937C2.38241 12.1239 2.18849 12.2033 1.9843 12.2217C1.82647 12.2368 1.66632 12.2327 1.50791 12.2409C1.44524 12.2432 1.382 12.2536 1.31237 12.2606V10.5198C1.43422 10.5198 1.55259 10.5146 1.67096 10.5198C1.79282 10.5256 1.91409 10.5407 2.03537 10.5529C2.25296 10.572 2.43458 10.6742 2.58777 10.8221C2.90227 11.1239 2.89879 11.6972 2.54077 11.9937ZM14.8759 4.14917C14.8142 3.78075 14.6943 3.42448 14.5208 3.09368C14.3491 2.75663 14.1335 2.44385 13.8796 2.16353C13.5916 1.84508 13.2685 1.5603 12.9163 1.31462C12.4921 1.01839 12.0334 0.774828 11.5504 0.589297C11.2851 0.486044 11.0148 0.396375 10.7404 0.320638C10.4096 0.233599 10.0719 0.170351 9.73537 0.103622C9.58079 0.0742721 9.42492 0.052198 9.26827 0.0374725C9.13539 0.0235464 9.00309 0.0212254 8.85106 0.0131018C8.8853 0.0804115 8.81508 0.158746 8.92475 0.187179C9.17252 0.252748 9.42784 0.306131 9.66574 0.399553C9.96167 0.515604 10.2553 0.646162 10.528 0.808054C10.9203 1.04074 11.276 1.32912 11.5609 1.69295C11.7274 1.9059 11.8846 2.1264 11.9937 2.37359C12.097 2.60859 12.1933 2.84766 12.2728 3.09194C12.328 3.26022 12.3552 3.43894 12.3848 3.61476C12.4191 3.83003 12.455 4.04647 12.4643 4.26406C12.4753 4.51531 12.4678 4.76831 12.4492 5.01898C12.4308 5.25268 12.3969 5.48491 12.3477 5.71412C12.2419 6.21541 12.0393 6.69122 11.7512 7.11486C11.5409 7.42636 11.2893 7.70785 11.0032 7.95159C10.7282 8.19124 10.423 8.38679 10.0969 8.54404C9.64995 8.75809 9.17011 8.89522 8.67756 8.94964C8.41474 8.97508 8.15039 8.98109 7.88667 8.96762C7.32043 8.94958 6.75745 8.87455 6.20625 8.74364C5.73334 8.62237 5.26856 8.46744 4.8351 8.23766C4.56466 8.09798 4.30075 7.94598 4.04421 7.78216C3.74267 7.58581 3.4697 7.34876 3.23302 7.07773C2.9748 6.78296 2.76997 6.4615 2.68467 6.07388C2.62781 5.81161 2.64405 5.55571 2.76649 5.31375C2.92084 5.00679 3.16338 4.77991 3.43901 4.58378C3.72386 4.38584 4.02907 4.21894 4.34943 4.08592C4.80899 3.88922 5.28364 3.73545 5.77512 3.64203C6.1014 3.57572 6.42982 3.52037 6.75982 3.47607C7.07449 3.43921 7.39066 3.41656 7.70737 3.40818C7.96733 3.39948 8.22787 3.41689 8.4884 3.42211C8.51451 3.42269 8.54236 3.41979 8.57486 3.41805V-0.000244141H8.06946C8.06133 0.00497817 8.05321 0.0148425 8.04392 0.0154228C7.8124 0.0276082 7.58204 0.0374725 7.35052 0.0513987C7.22402 0.0583618 7.09636 0.0688064 6.97045 0.0873746C6.77374 0.115807 6.5782 0.148302 6.38381 0.186018C6.12385 0.236501 5.8581 0.27944 5.60394 0.351972C5.25637 0.451776 4.9117 0.562025 4.57515 0.694903C4.29314 0.806893 4.0181 0.944414 3.75351 1.09238C3.43604 1.27155 3.13945 1.48543 2.86919 1.73008C2.63245 1.9442 2.4195 2.17688 2.23323 2.43509C2.01651 2.73383 1.84377 3.06212 1.72029 3.40992C1.67271 3.54745 1.62454 3.68613 1.59843 3.82829C1.55897 4.04182 1.54215 4.26 1.51023 4.47586C1.46613 4.77759 1.50095 5.07642 1.55317 5.37119C1.60075 5.63811 1.68373 5.89691 1.79282 6.14758C1.94796 6.50683 2.15564 6.84104 2.40905 7.13924C2.57965 7.34058 2.76301 7.53555 2.9632 7.70847C3.19878 7.91272 3.44829 8.10594 3.71115 8.27538C3.98561 8.45004 4.27806 8.59742 4.56935 8.74249C4.76779 8.84113 4.97379 8.92933 5.185 8.99838C5.49222 9.09881 5.80329 9.18708 6.11747 9.26297C6.38961 9.32854 6.66639 9.38077 6.94318 9.42138C7.42502 9.48799 7.91194 9.51052 8.39788 9.4887C8.73675 9.47477 9.07678 9.4533 9.41333 9.42197C9.65502 9.40188 9.89517 9.36622 10.1323 9.3152C10.4543 9.24267 10.7717 9.14518 11.0926 9.05872C11.4441 8.95899 11.7849 8.82448 12.1098 8.65719C12.3651 8.52953 12.6076 8.37518 12.8525 8.2278C13.1325 8.05361 13.3921 7.84866 13.6266 7.61679C13.7386 7.50944 13.8453 7.39977 13.944 7.2814C14.0722 7.12937 14.1975 6.97502 14.3055 6.81081C14.4866 6.52895 14.632 6.22567 14.7383 5.90793C14.8507 5.57039 14.9141 5.21844 14.9263 4.86289C14.9328 4.62391 14.9159 4.38487 14.8759 4.14917ZM12.2723 14.0002V15.8611H13.0051V14.0002H12.2723ZM12.2723 13.1211V13.5981H13.004V13.1211H12.2723Z" fill="black"/>
<path d="M8.44939 3.62437C8.26777 3.647 8.08035 3.65571 7.90047 3.69574C7.6082 3.75962 7.32608 3.86329 7.062 4.00386C6.70639 4.18822 6.39238 4.44358 6.13939 4.75413C5.98377 4.94301 5.86009 5.15607 5.77325 5.38487C5.70652 5.56939 5.64037 5.75334 5.64037 5.95294C5.63979 6.14153 5.62586 6.33243 5.65139 6.51811C5.67809 6.71018 5.74714 6.89296 5.84056 7.06704C5.96531 7.29682 6.12314 7.50049 6.31405 7.67224C6.46665 7.80919 6.63957 7.92814 6.81249 8.03897C7.08753 8.2142 7.38172 8.34824 7.69854 8.43064C7.87668 8.47648 8.05366 8.52232 8.23412 8.56178C8.33624 8.58383 8.44127 8.59079 8.55268 8.60356V3.60522C8.51438 3.61219 8.48189 3.62031 8.44939 3.62437ZM10.6114 10.5515V10.1227H8.58053V12.6572H10.5929V12.2209H9.27278V11.6133H10.5285V11.177H9.27394V10.5515H10.6114ZM7.36083 11.4393C7.53955 11.3923 7.70898 11.3313 7.82213 11.1567C7.90511 11.0267 7.92426 10.8915 7.9202 10.7464C7.91498 10.548 7.81053 10.4006 7.65212 10.3078C7.40783 10.1639 7.13395 10.1151 6.8502 10.1163C6.68773 10.1174 6.5241 10.1163 6.36163 10.1163H5.44714V12.6561H6.20322V11.6516C6.31811 11.6516 6.42778 11.6441 6.53629 11.6528C6.668 11.6621 6.78289 11.7178 6.84904 11.8379C6.98889 12.0921 7.12525 12.3497 7.25929 12.6073C7.27959 12.6479 7.29874 12.6642 7.34458 12.6642C7.57494 12.6619 7.80589 12.663 8.03567 12.6625C8.0525 12.6625 8.06932 12.6561 8.09602 12.6514C7.82852 12.2493 7.6614 11.8002 7.36083 11.4393ZM7.03473 11.0905C6.92026 11.1677 6.78572 11.2096 6.64769 11.2112C6.50205 11.2124 6.35699 11.2112 6.20148 11.2112V10.5509C6.40167 10.5509 6.60127 10.5521 6.8003 10.5509C6.91113 10.5497 6.99179 10.6072 7.0707 10.6745C7.19198 10.7784 7.1589 11.0093 7.03473 11.0905ZM13.11 12.24C12.8089 12.2487 12.51 12.2516 12.2187 12.1576C11.9866 12.0839 11.7882 11.969 11.682 11.7387C11.5973 11.5542 11.6025 11.3615 11.6501 11.1654C11.6872 11.0058 11.7621 10.8677 11.8845 10.7656C12.0951 10.5846 12.3557 10.5347 12.622 10.523C12.7445 10.5167 12.868 10.5265 12.9905 10.5387C13.1501 10.5544 13.3114 10.5834 13.486 10.6089C13.5052 10.501 13.5278 10.3797 13.5464 10.2596C13.5498 10.2474 13.5307 10.2236 13.5145 10.219C13.3195 10.1482 13.121 10.0919 12.9139 10.0832C12.759 10.0756 12.6039 10.0758 12.4491 10.0838C12.2974 10.0913 12.1466 10.1115 11.9982 10.1441C11.6959 10.2167 11.4058 10.3258 11.1685 10.5445C11.0434 10.6522 10.9462 10.7886 10.8853 10.942C10.8125 11.1276 10.7887 11.3288 10.8163 11.5263C10.8505 11.7723 10.9433 11.9876 11.1099 12.1681C11.3159 12.3903 11.5776 12.5284 11.8648 12.6079C12.1616 12.6941 12.4705 12.7308 12.7793 12.7164C13.0243 12.7042 13.2674 12.6665 13.5046 12.6038C13.4918 12.4646 13.4785 12.3282 13.4669 12.1924C13.3381 12.2099 13.2255 12.236 13.11 12.24ZM10.9532 14.7108C10.9248 14.5425 10.8505 14.3853 10.7385 14.2564C10.5528 14.0475 10.308 13.9495 10.0439 13.9303C9.66329 13.9019 9.28322 13.9193 8.95828 14.2216V13.1046H8.21497V15.8434H8.96698V15.6554C8.98265 15.6595 8.99599 15.6583 9.00296 15.6647C9.17761 15.8307 9.39811 15.8916 9.62499 15.9119C9.88437 15.9357 10.1472 15.9287 10.3909 15.8109C10.6178 15.7013 10.7919 15.5417 10.8905 15.3032C10.9683 15.11 10.9892 14.915 10.9532 14.7108ZM9.91338 15.4158C9.78602 15.4835 9.64083 15.51 9.49775 15.4919C9.35467 15.4737 9.22074 15.4116 9.11437 15.3142C9.00412 15.2156 8.94087 15.0868 8.96234 14.9376C8.91708 14.6226 9.24608 14.3829 9.50082 14.3626C9.70739 14.3458 9.88959 14.387 10.0416 14.5268C10.3364 14.7978 10.2592 15.2307 9.91338 15.4158Z" fill="black"/>
</g>
<defs>
<clipPath id="clip0_1052_4721">
<rect width="16" height="16" fill="white" transform="translate(0.5 -0.000244141)"/>
</clipPath>
</defs>
</svg>
