<svg width="28" height="28" viewBox="0 0 28 28" fill="none" xmlns="http://www.w3.org/2000/svg">
<path d="M26.931 5.1788L9.78232 1.54966C9.05679 1.39616 8.33766 1.86425 8.18416 2.58979L7.85836 4.68349L27.645 8.87066L27.9708 6.77696C28.1243 6.0517 27.6565 5.33234 26.931 5.1788ZM19.7195 9.31468C19.5192 8.59336 18.7654 8.16699 18.0443 8.36697L14.7889 9.27071L7.11434 7.64652L6.27031 11.6345L0.996762 13.0982C0.275712 13.2982 -0.150651 14.052 0.0493312 14.7731L3.02129 25.4826C3.22159 26.2037 3.97544 26.6303 4.69649 26.4301L21.744 21.6992C22.4651 21.4989 22.8914 20.7453 22.6915 20.024L22.1813 18.1855L24.0933 18.5897C24.8188 18.7435 25.5379 18.2754 25.6914 17.5498L26.9011 11.8337L20.0142 10.3764L19.7195 9.31468ZM21.6883 14.7577L22.1099 12.7651C22.1732 12.4668 22.469 12.2743 22.7673 12.3373L24.7599 12.7592C25.0585 12.8225 25.251 13.118 25.188 13.4167L24.7664 15.4092C24.703 15.7076 24.4072 15.9003 24.1089 15.837L22.1163 15.4154C21.8174 15.3519 21.6249 15.056 21.6883 14.7577ZM1.29342 14.1669L6.01113 12.8581L17.1425 9.76909L18.3404 9.43629C18.3622 9.43039 18.3841 9.4276 18.4054 9.4276C18.5015 9.4276 18.6163 9.49064 18.6499 9.61138L18.7906 10.1179L19.2312 11.7056L1.6996 16.5707L1.11833 14.4767C1.08191 14.3453 1.16206 14.2033 1.29342 14.1669ZM21.6224 20.3203C21.6448 20.4016 21.6213 20.4688 21.5975 20.5108C21.574 20.5528 21.5286 20.6078 21.4473 20.6301L4.40011 25.361C4.37893 25.3669 4.35707 25.3699 4.3351 25.37C4.23902 25.37 4.12414 25.3067 4.09055 25.1859L2.3571 18.9392L19.8887 14.0739L20.958 17.9266L21.6224 20.3203Z" fill="white"/>
<path d="M7.15433 20.7477C7.07252 20.4536 6.76548 20.2799 6.47134 20.3614L4.48045 20.9141C4.18658 20.9956 4.01263 21.303 4.09444 21.5971L4.64685 23.5877C4.72865 23.8819 5.03569 24.0555 5.32983 23.9737L7.32073 23.4213C7.61487 23.3398 7.78854 23.0325 7.70701 22.7383L7.15433 20.7477Z" fill="white"/>
</svg>
