<svg width="28" height="26" viewBox="0 0 28 26" fill="none" xmlns="http://www.w3.org/2000/svg">
<path d="M26.931 4.1788L9.78232 0.549663C9.05679 0.396165 8.33766 0.864253 8.18416 1.58979L7.85836 3.68349L27.645 7.87066L27.9708 5.77696C28.1243 5.0517 27.6565 4.33234 26.931 4.1788ZM19.7195 8.31468C19.5192 7.59336 18.7654 7.16699 18.0443 7.36697L14.7889 8.27071L7.11434 6.64652L6.27031 10.6345L0.996762 12.0982C0.275712 12.2982 -0.150651 13.052 0.0493312 13.7731L3.02129 24.4826C3.22159 25.2037 3.97544 25.6303 4.69649 25.4301L21.744 20.6992C22.4651 20.4989 22.8914 19.7453 22.6915 19.024L22.1813 17.1855L24.0933 17.5897C24.8188 17.7435 25.5379 17.2754 25.6914 16.5498L26.9011 10.8337L20.0142 9.3764L19.7195 8.31468ZM21.6883 13.7577L22.1099 11.7651C22.1732 11.4668 22.469 11.2743 22.7673 11.3373L24.7599 11.7592C25.0585 11.8225 25.251 12.118 25.188 12.4167L24.7664 14.4092C24.703 14.7076 24.4072 14.9003 24.1089 14.837L22.1163 14.4154C21.8174 14.3519 21.6249 14.056 21.6883 13.7577ZM1.29342 13.1669L6.01113 11.8581L17.1425 8.76909L18.3404 8.43629C18.3622 8.43039 18.3841 8.4276 18.4054 8.4276C18.5015 8.4276 18.6163 8.49064 18.6499 8.61138L18.7906 9.11786L19.2312 10.7056L1.6996 15.5707L1.11833 13.4767C1.08191 13.3453 1.16206 13.2033 1.29342 13.1669ZM21.6224 19.3203C21.6448 19.4016 21.6213 19.4688 21.5975 19.5108C21.574 19.5528 21.5286 19.6078 21.4473 19.6301L4.40011 24.361C4.37893 24.3669 4.35707 24.3699 4.3351 24.37C4.23902 24.37 4.12414 24.3067 4.09055 24.1859L2.3571 17.9392L19.8887 13.0739L20.958 16.9266L21.6224 19.3203Z" fill="black"/>
<path d="M7.15433 19.7477C7.07252 19.4536 6.76548 19.2799 6.47134 19.3614L4.48045 19.9141C4.18658 19.9956 4.01263 20.303 4.09444 20.5971L4.64685 22.5877C4.72865 22.8819 5.03569 23.0555 5.32983 22.9737L7.32073 22.4213C7.61487 22.3398 7.78854 22.0325 7.70701 21.7383L7.15433 19.7477Z" fill="black"/>
</svg>
