<svg width="24" height="24" viewBox="0 0 24 24" fill="none" xmlns="http://www.w3.org/2000/svg">
<g clip-path="url(#clip0_1052_5191)">
<path d="M5.28942 15.1839V18.9613H6.43745V15.1839H5.28942ZM4.48605 21.0981C4.17097 20.5428 3.64526 20.2539 3.05601 20.085C2.65476 19.971 2.23611 19.9501 1.81832 19.9518C1.2282 19.9536 0.638949 19.9518 0.0488281 19.9518V23.772C0.809545 23.7659 1.57113 23.7572 2.33272 23.7476C2.71009 23.7429 3.08292 23.6645 3.43027 23.5169C3.9438 23.2976 4.37812 22.993 4.58179 22.442C4.75326 21.9798 4.72454 21.5194 4.48605 21.0981ZM2.67826 22.9642C2.41549 23.067 2.13527 23.1179 1.85314 23.1139C1.64337 23.1122 1.43448 23.1139 1.2195 23.1139V20.5011C1.68428 20.5916 2.16125 20.4897 2.6095 20.6612C2.99073 20.8083 3.29014 21.0477 3.412 21.4515C3.60435 22.0904 3.34411 22.7075 2.67826 22.9642ZM7.68036 23.1897C7.38356 23.1209 7.06413 22.919 7.07719 22.5569H9.8807C9.91317 22.2382 9.85367 21.9168 9.70923 21.6308C9.50121 21.2104 9.13304 20.9902 8.70133 20.8692C8.38545 20.7802 8.0556 20.7515 7.72911 20.7848C7.17989 20.8344 6.68203 20.9806 6.2834 21.3888C5.95265 21.7283 5.83341 22.1261 5.93089 22.5882C6.0101 22.9608 6.23988 23.2341 6.54712 23.4403C6.92313 23.6971 7.34962 23.8042 7.797 23.8198C8.11121 23.8311 8.42803 23.8251 8.73962 23.7928C9.00857 23.7659 9.27143 23.691 9.53516 23.6283C9.56475 23.6223 9.60305 23.5665 9.60479 23.5317C9.61175 23.3342 9.6074 23.1383 9.6074 22.9451C9.47597 23.0043 9.35324 23.0757 9.22182 23.1131C8.71438 23.2515 8.19911 23.3037 7.68036 23.1897ZM7.35223 21.5003C7.70735 21.3131 8.07726 21.2827 8.44978 21.448C8.64562 21.5351 8.73353 21.6787 8.82231 21.9972H7.09721C7.06152 21.8275 7.16771 21.596 7.35223 21.5003ZM22.7154 23.2297C22.5848 23.1644 22.4943 23.0652 22.5065 22.8929C22.5187 22.6996 22.5082 22.5064 22.5082 22.3115V21.5943H23.4343V20.9859H22.5048V20.2669H21.3628V20.9946H20.4907V21.5977H21.3698V21.7501C21.3698 22.2175 21.3663 22.684 21.3715 23.1514C21.375 23.3298 21.4412 23.4952 21.5674 23.6223C21.7528 23.8146 21.9904 23.9025 22.2471 23.9486L22.5091 24H22.9391C23.0514 23.9826 23.1671 23.9756 23.2759 23.946C23.3456 23.9278 23.4648 23.9695 23.47 23.8425C23.4779 23.6553 23.4726 23.4682 23.4726 23.2802C23.2046 23.3359 22.953 23.3507 22.7154 23.2297ZM19.8066 15.1987L19.8074 15.8314H21.3489V19.0101H22.4334V15.8297H23.9496V15.1987H19.8066ZM4.59137 16.5791C4.43383 16.1204 4.09264 15.8053 3.66963 15.5782C3.17177 15.3109 2.63126 15.2039 2.06986 15.1987C1.39705 15.1917 0.721636 15.1969 0.0488281 15.1969V19.017C0.738173 19.011 1.42665 18.9909 2.11599 18.9962C2.5644 19.0047 3.0101 18.9248 3.42766 18.7612C3.80802 18.6106 4.14138 18.3895 4.38422 18.0544C4.71322 17.6009 4.76893 17.0961 4.59137 16.5791ZM3.06036 17.9909C2.82282 18.1862 2.53195 18.3054 2.22566 18.3329C1.98892 18.3556 1.74869 18.3495 1.51108 18.3616C1.41707 18.3651 1.3222 18.3808 1.21776 18.3912V15.7801C1.40054 15.7801 1.57809 15.7722 1.75565 15.7801C1.93843 15.7888 2.12034 15.8114 2.30226 15.8297C2.62865 15.8584 2.90108 16.0116 3.13086 16.2336C3.60261 16.6862 3.59739 17.5461 3.06036 17.9909ZM21.563 6.22412C21.4704 5.67149 21.2906 5.13709 21.0303 4.64089C20.7729 4.13532 20.4495 3.66614 20.0686 3.24567C19.6366 2.76799 19.1519 2.34081 18.6237 1.97229C17.9874 1.52795 17.2994 1.16261 16.5748 0.884311C16.1769 0.729432 15.7714 0.594928 15.3598 0.481323C14.8637 0.350765 14.3571 0.255893 13.8523 0.155799C13.6204 0.111774 13.3866 0.0786632 13.1516 0.056575C12.9523 0.0356858 12.7538 0.0322043 12.5258 0.0200189C12.5772 0.120984 12.4718 0.238486 12.6363 0.281134C13.008 0.379488 13.391 0.459563 13.7478 0.599695C14.1917 0.773772 14.6321 0.969609 15.0412 1.21245C15.6296 1.56147 16.1631 1.99405 16.5905 2.53978C16.8403 2.85922 17.0762 3.18996 17.2398 3.56075C17.3947 3.91325 17.5392 4.27185 17.6585 4.63828C17.7411 4.89069 17.7821 5.15877 17.8264 5.4225C17.8778 5.74541 17.9318 6.07007 17.9457 6.39646C17.9622 6.77334 17.9509 7.15282 17.9231 7.52883C17.8954 7.87939 17.8445 8.22773 17.7707 8.57155C17.6121 9.32348 17.3081 10.0372 16.876 10.6727C16.5606 11.1399 16.1832 11.5621 15.7541 11.9278C15.3415 12.2872 14.8837 12.5805 14.3945 12.8164C13.7241 13.1375 13.0044 13.3432 12.2656 13.4248C11.8713 13.463 11.4748 13.472 11.0792 13.4518C10.2299 13.4247 9.38538 13.3122 8.55858 13.1158C7.84922 12.9339 7.15204 12.7015 6.50186 12.3569C6.0962 12.1473 5.70034 11.9193 5.31553 11.6736C4.86322 11.3791 4.45375 11.0235 4.09873 10.617C3.71141 10.1748 3.40416 9.69261 3.27622 9.11119C3.19092 8.71778 3.21529 8.33394 3.39894 7.97099C3.63046 7.51055 3.99428 7.17023 4.40772 6.87604C4.835 6.57913 5.29281 6.32877 5.77335 6.12925C6.4627 5.83419 7.17467 5.60354 7.91189 5.46341C8.40131 5.36395 8.89394 5.28092 9.38893 5.21448C9.86094 5.15918 10.3352 5.1252 10.8103 5.11264C11.2002 5.09959 11.591 5.1257 11.9818 5.13353C12.021 5.1344 12.0628 5.13005 12.1115 5.12744V0H11.3534C11.3412 0.00783347 11.329 0.02263 11.3151 0.0235004C10.9678 0.0417785 10.6223 0.056575 10.275 0.0774643C10.0852 0.0879089 9.89375 0.103576 9.70488 0.131428C9.40982 0.174077 9.1165 0.222819 8.82492 0.279394C8.43499 0.355117 8.03635 0.419526 7.65512 0.528324C7.13376 0.67803 6.61675 0.843403 6.11193 1.04272C5.68892 1.21071 5.27636 1.41699 4.87947 1.63894C4.40326 1.9077 3.95838 2.22851 3.553 2.59549C3.19788 2.91666 2.87845 3.26569 2.59906 3.65301C2.27397 4.10112 2.01486 4.59355 1.82964 5.11525C1.75826 5.32153 1.68602 5.52956 1.64686 5.7428C1.58767 6.0631 1.56243 6.39037 1.51456 6.71415C1.44841 7.16675 1.50063 7.615 1.57897 8.05716C1.65034 8.45753 1.7748 8.84573 1.93843 9.22173C2.17115 9.76062 2.48267 10.2619 2.86278 10.7092C3.11868 11.0112 3.39372 11.3037 3.694 11.5631C4.04738 11.8694 4.42164 12.1593 4.81593 12.4134C5.22762 12.6754 5.66629 12.8965 6.10323 13.1141C6.4009 13.2621 6.70989 13.3944 7.02671 13.4979C7.48754 13.6486 7.95414 13.781 8.42541 13.8948C8.83362 13.9932 9.2488 14.0715 9.66397 14.1324C10.3867 14.2324 11.1171 14.2661 11.846 14.2334C12.3543 14.2125 12.8644 14.1803 13.3692 14.1333C13.7317 14.1032 14.092 14.0497 14.4476 13.9732C14.9307 13.8644 15.4068 13.7181 15.8881 13.5885C16.4154 13.4388 16.9265 13.2371 17.4139 12.9861C17.7969 12.7947 18.1607 12.5631 18.528 12.3421C18.948 12.0808 19.3374 11.7734 19.6891 11.4255C19.8571 11.2645 20.0172 11.1 20.1652 10.9225C20.3575 10.6944 20.5455 10.4629 20.7074 10.2166C20.9791 9.79379 21.1973 9.33886 21.3567 8.86226C21.5253 8.35595 21.6203 7.82803 21.6387 7.2947C21.6483 6.93623 21.623 6.57767 21.563 6.22412ZM17.6576 21.0007V23.792H18.7569V21.0007H17.6576ZM17.6576 19.682V20.3975H18.7551V19.682H17.6576Z" fill="black"/>
<path d="M11.9235 5.43644C11.6511 5.47038 11.37 5.48344 11.1002 5.5435C10.6618 5.63931 10.2386 5.79482 9.84245 6.00567C9.30903 6.28221 8.83802 6.66525 8.45854 7.13108C8.22511 7.4144 8.03959 7.73398 7.90932 8.07719C7.80923 8.35397 7.71 8.62988 7.71 8.92929C7.70913 9.21217 7.68824 9.49853 7.72654 9.77705C7.76658 10.0651 7.87016 10.3393 8.01029 10.6004C8.19742 10.9451 8.43417 11.2506 8.72052 11.5082C8.94943 11.7137 9.20881 11.8921 9.46818 12.0583C9.88074 12.3212 10.322 12.5222 10.7973 12.6458C11.0645 12.7146 11.3299 12.7834 11.6006 12.8425C11.7538 12.8756 11.9114 12.8861 12.0785 12.9052V5.40771C12.021 5.41816 11.9723 5.43034 11.9235 5.43644ZM15.1666 15.8271V15.1839H12.1202V18.9857H15.1387V18.3312H13.1586V17.4199H15.0421V16.7654H13.1604V15.8271H15.1666ZM10.2907 17.1588C10.5588 17.0883 10.8129 16.9969 10.9827 16.7349C11.1071 16.5399 11.1358 16.3371 11.1297 16.1195C11.1219 15.8219 10.9652 15.6008 10.7276 15.4615C10.3612 15.2457 9.95038 15.1726 9.52476 15.1743C9.28105 15.176 9.0356 15.1743 8.79189 15.1743H7.42017V18.984H8.55428V17.4773C8.72661 17.4773 8.89112 17.466 9.05388 17.4791C9.25146 17.493 9.42379 17.5766 9.52302 17.7567C9.73278 18.138 9.93732 18.5244 10.1384 18.9109C10.1688 18.9718 10.1976 18.9962 10.2663 18.9962C10.6119 18.9927 10.9583 18.9944 11.303 18.9936C11.3282 18.9936 11.3534 18.984 11.3935 18.977C10.9922 18.3738 10.7416 17.7002 10.2907 17.1588ZM9.80154 16.6357C9.62983 16.7514 9.42803 16.8143 9.22099 16.8167C9.00253 16.8185 8.78493 16.8167 8.55167 16.8167V15.8262C8.85195 15.8262 9.15136 15.828 9.4499 15.8262C9.61615 15.8245 9.73713 15.9107 9.8555 16.0116C10.0374 16.1674 9.9878 16.5138 9.80154 16.6357ZM18.9145 18.3599C18.4627 18.373 18.0145 18.3773 17.5776 18.2363C17.2294 18.1258 16.9317 17.9534 16.7725 17.6079C16.6454 17.3311 16.6532 17.0422 16.7246 16.748C16.7803 16.5086 16.8926 16.3015 17.0762 16.1483C17.3922 15.8767 17.783 15.8019 18.1825 15.7844C18.3661 15.7749 18.5515 15.7897 18.7352 15.8079C18.9745 15.8314 19.2165 15.875 19.4785 15.9133C19.5072 15.7514 19.5411 15.5695 19.569 15.3893C19.5742 15.371 19.5455 15.3353 19.5211 15.3284C19.2287 15.2222 18.931 15.1378 18.6203 15.1247C18.388 15.1132 18.1553 15.1135 17.9231 15.1256C17.6955 15.1368 17.4693 15.1671 17.2468 15.2161C16.7933 15.3249 16.3582 15.4885 16.0022 15.8167C15.8145 15.9781 15.6687 16.1827 15.5774 16.4129C15.4682 16.6913 15.4325 16.9931 15.4738 17.2893C15.5252 17.6584 15.6645 17.9813 15.9143 18.252C16.2232 18.5853 16.6158 18.7925 17.0466 18.9117C17.4918 19.0411 17.9553 19.0961 18.4184 19.0745C18.7859 19.0562 19.1505 18.9996 19.5063 18.9056C19.4872 18.6968 19.4672 18.4922 19.4498 18.2885C19.2565 18.3147 19.0877 18.3538 18.9145 18.3599ZM15.6793 22.066C15.6366 21.8136 15.5252 21.5778 15.3572 21.3845C15.0787 21.0712 14.7114 20.9241 14.3154 20.8953C13.7444 20.8527 13.1743 20.8788 12.6869 21.3323V19.6568H11.5719V23.765H12.6999V23.483C12.7234 23.4891 12.7434 23.4874 12.7539 23.4969C13.0159 23.7459 13.3466 23.8373 13.6869 23.8677C14.076 23.9034 14.4703 23.893 14.8358 23.7163C15.1762 23.5518 15.4373 23.3124 15.5852 22.9547C15.7019 22.6648 15.7332 22.3724 15.6793 22.066ZM14.1195 23.1235C13.9285 23.2251 13.7107 23.2649 13.4961 23.2377C13.2815 23.2104 13.0806 23.1173 12.921 22.9712C12.7556 22.8233 12.6608 22.63 12.693 22.4063C12.6251 21.9337 13.1186 21.5743 13.5007 21.5438C13.8105 21.5185 14.0838 21.5803 14.3119 21.7901C14.754 22.1966 14.6383 22.8459 14.1195 23.1235Z" fill="black"/>
</g>
<defs>
<clipPath id="clip0_1052_5191">
<rect width="24" height="24" fill="white"/>
</clipPath>
</defs>
</svg>
