<svg width="27" height="27" viewBox="0 0 27 27" fill="none" xmlns="http://www.w3.org/2000/svg">
<path d="M6.75 6.73933H13.5C13.9641 6.73933 14.3438 6.35965 14.3438 5.89558V4.2064C14.3438 3.74233 13.9641 3.36222 13.5 3.36222H12.1922C11.7125 1.12882 8.53748 1.1284 8.05781 3.36222H6.75C6.28594 3.36222 5.90625 3.74191 5.90625 4.20597V5.89474C5.90625 6.3588 6.28594 6.73891 6.75 6.73891V6.73933ZM10.125 13.2105C12.1732 13.1451 12.1686 10.1806 10.125 10.1164C8.08102 10.1806 8.07722 13.1455 10.125 13.2105ZM8.01562 18.1363H12.2344C12.4664 18.1363 12.6562 17.9464 12.6562 17.7144V16.5872C12.5381 13.2354 7.71103 13.2358 7.59375 16.5872V17.7144C7.59375 17.9464 7.78359 18.1363 8.01562 18.1363Z" fill="#2DDE28"/>
<path d="M15.6094 4.62872H15.1875V5.89519C15.1876 6.11687 15.144 6.33639 15.0593 6.54123C14.9745 6.74606 14.8503 6.93219 14.6935 7.08898C14.5368 7.24577 14.3508 7.37014 14.146 7.455C13.9412 7.53986 13.7217 7.58353 13.5 7.58353H6.75C6.52832 7.58353 6.30882 7.53986 6.10403 7.455C5.89924 7.37014 5.71317 7.24577 5.55646 7.08898C5.39975 6.93219 5.27547 6.74606 5.19071 6.54123C5.10596 6.33639 5.06239 6.11687 5.0625 5.89519V4.62872C3.51422 4.46925 2.11064 5.56107 2.10938 7.16166V22.7795C2.1096 23.4509 2.3763 24.0948 2.85091 24.5697C3.32551 25.0446 3.96921 25.3117 4.64062 25.3124H15.6094C17.0058 25.3124 18.1406 24.1771 18.1406 22.7799V7.16166C18.1404 6.49024 17.8737 5.84637 17.3991 5.37144C16.9245 4.89652 16.2808 4.62939 15.6094 4.62872ZM6.75 16.5872C6.75063 15.9527 6.93032 15.3313 7.26839 14.7944C7.60647 14.2575 8.0892 13.827 8.66109 13.5522C8.37331 13.3289 8.14017 13.0429 7.97936 12.716C7.81854 12.3891 7.73429 12.0299 7.73297 11.6656C7.84519 8.49985 12.404 8.49732 12.517 11.6656C12.517 12.4292 12.15 13.1135 11.5889 13.5522C12.1608 13.827 12.6435 14.2575 12.9816 14.7944C13.3197 15.3313 13.4994 15.9527 13.5 16.5872V17.7144C13.4991 18.0499 13.3655 18.3714 13.1284 18.6087C12.8912 18.846 12.5698 18.9798 12.2344 18.9809H8.01562C7.31953 18.9809 6.75 18.411 6.75 17.7144V16.5872ZM14.3438 22.7799H5.90625C5.67422 22.7799 5.48438 22.59 5.48438 22.358C5.48438 22.126 5.67422 21.9357 5.90625 21.9357H14.3438C14.8951 21.9454 14.9002 22.7689 14.3438 22.7795V22.7799ZM14.3438 21.0911H5.90625C5.67422 21.0911 5.48438 20.9013 5.48438 20.6693C5.48438 20.4372 5.67422 20.2474 5.90625 20.2474H14.3438C14.8951 20.2567 14.9002 21.0806 14.3438 21.0911ZM19.7691 23.6494C20.0053 24.2273 20.3512 24.7467 20.7942 25.1901C20.8786 25.2702 20.9841 25.3124 21.0938 25.3124C21.2034 25.3124 21.3089 25.2702 21.3933 25.1901C22.1756 24.4005 22.6589 23.3633 22.7602 22.2563H19.4231C19.4695 22.7331 19.5834 23.1975 19.7691 23.6494ZM23.625 8.85H22.7812C22.7589 8.07924 22.9466 6.96675 22.2877 6.38921C21.2667 5.3303 19.3767 6.10571 19.4062 7.58396V9.69417H23.625C23.857 9.69417 24.0469 9.88402 24.0469 10.116V14.3373C24.0469 14.5694 24.2367 14.7596 24.4688 14.7596C24.7008 14.7596 24.8906 14.5698 24.8906 14.3378V10.1165C24.8897 9.781 24.7561 9.45952 24.519 9.22222C24.2819 8.98493 23.9605 8.85112 23.625 8.85Z" fill="#2DDE28"/>
<path d="M19.4062 10.5381H22.7812V21.4115H19.4062V10.5381Z" fill="#2DDE28"/>
</svg>
